<?xml version="1.0" encoding="utf-8" ?>
<!-- Generated by AutoXChange 64-bit  V23.05.88 from Tailor Made Software -->
<!-- www.tailormade.com -->
<!DOCTYPE svg PUBLIC '-//W3C//DTD SVG 1.0//EN' 
'http://www.w3.org/TR/2001/REC-SVG-20010904/DTD/svg10.dtd'>
<svg id="tmsSVG4" contentScriptType="text/ecmascript" xmlns:xlink="http://www.w3.org/1999/xlink" zoomAndPan="magnify" 
contentStyleType="text/css" preserveAspectRatio="xMidYMid meet" 
width="2053.77" height="1333" viewBox="0 0 2053.77 1333" 
version="1.1" xmlns="http://www.w3.org/2000/svg" xmlns:cvjs="http://www.tailormade.com/" stroke-linecap="butt" stroke-linejoin="round" fill-rule="evenodd" >
<defs>
	<style id="cv_styles" type = "text/css">
	    <![CDATA[
	   #tmsSVG4 { background-color: white; opacity: 1.}
		:root {
		    --tmsMinLineWidth: 0.6;
		    --tmsMinDashLength: 0.6;
		    --tmsHLWidth: 0.6;
		    --tmsNumberOfLayouts: 1;
		    --tmsNumberOfSVGViewports: 0;
         --tmsMinFixedLineWidth: 0.6;
		    --tmsbPostFix: 0;
		}
		.tmsPoints {
		    fill: none;
		    stroke-width: var(--tmsMinLineWidth);
		    r: calc(var(--tmsMinLineWidth)/2.0);
		}
		.ZWhl {
		    stroke-width: var(--tmsHLWidth);
		}
		.ZW {
		    stroke-width: var(--tmsMinLineWidth);
		}
		.ZW6 {
		    stroke-width: calc(var(--tmsMinLineWidth)*6);
		}
		.ZW10 {
		    stroke-width: calc(var(--tmsMinLineWidth)*10);
		}
		.ZW20 {
		    stroke-width: calc(var(--tmsMinLineWidth)*20);
		}
		.ZW100 {
		    stroke-width: calc(var(--tmsMinLineWidth)*100);
		}
		.nZW {
		}
		.sLW_0_2{
		    stroke-width: calc(var(--tmsMinFixedLineWidth)*0.333333);
		}
		.sLW_0_6{
		    stroke-width: var(--tmsMinFixedLineWidth);
		}
		.hyperlinks:hover {
		    stroke-width: 3;
		}
		.hyperimage image{
			opacity: 0;
		}
		.hyperimage:hover image{
			opacity: 1;
		}
		.hyperimage:hover path{
			stroke-width: 3;
		}
		.hyperimage:visited{
			color: red;
		}
		.sLt_CENTER {
		    stroke-dasharray: calc(var(--tmsMinDashLength)*1.488382) calc(var(--tmsMinDashLength)*0.297676) calc(var(--tmsMinDashLength)*0.297676) calc(var(--tmsMinDashLength)*0.297676);
		}
	]]></style>
	</defs>
<metadata>
<text id="cadviewer_worldUnits">
{ "globalOrigin": { "x": 17.448914, "y" : -258.016026}, 
						"units": "in",
						"measurementType": "English",
						"lengthType": "Architectural",
						"lengthPrecision": 4,
						"blockUnitsFormat": "Undefined",
						"svgToWorldUnits": 0.718680,
						"worldToSVGUnits": 1.391441
}
</text>
<text id="cadviewer_drawingCoordinates">
{ "DWG": 
    { "lowerLeft": { "x": 17.448914, "y" : -258.016026}, 
      "upperRight": { "x": 1493.448914, "y" : 699.983974} 
    },
 "SVG": 
    { "lowerLeft": { "x": 223.116910, "y" : 1333.000000}, 
      "upperRight": { "x": 2276.883090, "y" : 0.000000} 
    },
 "Drawing Height": 1333
}
</text>
<text id="cadviewer_vqBuilding"></text>
<text id="cadviewer_vqFloor"></text>
<text id="cadviewer_multiPages">
{ "multiPages": 1, 
                   "currentPage":1,
                   "pages" : [
                        { "fileName":"F304150__ModelSpace", "pageName":"ModelSpace"}
                   ]
}
</text>
</metadata>
<g id="cv_main_drawing">
<g id="layer_WA_2D_EXT" class="layer_WA_2D_EXT"  cvjs:layerName="WA-EXT" cvjs:plottable="YES"
 cvjs:status="ON" visibility="visible">
<g id="cvclr_1" stroke="none" fill="#91A552" opacity="1.">
<path id="cv_2" d="M697.11,123.84v-75.14h29.22v-19.48h12.18v-4.17h18.78v-6.96h2.78v-9.74h-50.09v4.17h-25.39v19.48h-4.17v75.14h-8.7v-4.17h-30.61v9.74h2.78v6.96h9.39v4.17h43.83 Z "/>
<path id="cv_3" d="M553.45,98.79h-27.13v4.17h-9.74v9.74h2.78v6.96h41.05v-6.96h2.78v-9.74h-9.74v-4.17 Z "/>
<path id="cv_4" d="M336.73,222.63h43.13v-79.31h30.61v-19.48h12.18v-4.17h13.22v-6.96h2.78v-9.74h-45.92v4.17h-25.39v19.48h-4.17v79.31h-8v-4.17h-31.31v9.74h2.78v6.96h10.09v4.17 Z "/>
<path id="cv_5" d="M243.15,211.5v6.96h-41.05v-6.96h-2.78v-9.74h9.74v-4.17h27.13v4.17h9.74v9.74h-2.78 Z "/>
<path id="cv_6" d="M120.01,211.5v-9.74h-43.13v4.17h-26.79v19.48h-4.17v70.96h9.74v-2.78h6.96v-51.48h30.61v-19.48h12.18v-4.17h11.83v-6.96h2.78 Z "/>
<path id="cv_7" d="M40.35,470.31h52.87v-33.39h-30.61v-59.83h-6.96v-2.78h-9.74v58.44h-18.09v4.17h-19.48v26.79h-4.17v48.7h9.74v-2.78h6.96v-22.26h19.48v-17.05 Z "/>
<path id="cv_8" d="M20.87,627.89v-41.05h-6.96v-2.78h-9.74v9.74h-4.17v27.13h4.17v9.74h9.74v-2.78h6.96 Z "/>
<path id="cv_9" d="M62.61,896.09h30.61v-33.39h-52.87v-17.05h-19.48v-22.26h-6.96v-2.78h-9.74v48.7h4.17v26.79h19.48v4.17h18.09v58.44h9.74v-2.78h6.96v-59.83 Z "/>
<path id="cv_10" d="M236.2,1135.42h-27.13v-4.17h-9.74v-9.74h2.78v-6.96h41.05v6.96h2.78v9.74h-9.74v4.17M121.4,1121.5v9.74h-44.53v-4.17h-26.79v-19.48h-4.17v-70.96h9.74v2.78h6.96v51.48h32v19.48h12.18v4.17h11.83v6.96h2.78 Z "/>
<path id="cv_11" d="M553.45,1234.21h-27.13v-4.17h-9.74v-9.74h2.78v-6.96h41.05v6.96h2.78v9.74h-9.74v4.17 Z "/>
<path id="cv_12" d="M1530.24,1220.29h-27.13v-4.17h-9.74v-9.74h2.78v-6.96h41.05v6.96h2.78v9.74h-9.74v4.17 Z "/>
<path id="cv_13" d="M0,739.2h4.17v9.74h9.74v-2.78h6.96v-41.05h-6.96v-2.78h-9.74v9.74L379.86,1110.37L422.65,1213.34v-4.17h-12.18v-19.48h-30.61l-16.28,-79.31h-26.85v4.17h-10.09v6.96h-2.78v9.74h31.31v-4.17h8v79.31h4.17v19.48h25.39v4.17h45.92v-9.74h-2.78v-6.96L0,739.2 Z "/>
<path id="cv_14" d="M0,739.2v-27.13h4.17v-9.74h9.74v2.78h6.96v41.05h-6.96v2.78h-9.74v-9.74h-4.17 Z "/>
<path id="cv_15" d="M422.65,1209.16v4.17h13.22v6.96h2.78v9.74h-45.92v-4.17h-25.39v-19.48h-4.17v-79.31h-8v4.17h-31.31v-9.74h2.78v-6.96h10.09v-4.17h43.13v79.31h30.61v19.48h12.18 Z "/>
<path id="cv_16" d="M653.28,1209.16h43.83v75.14h29.22v19.48h12.18v4.17h18.78v6.96h2.78v9.74h-50.09v-4.17h-25.39v-19.48h-4.17v-75.14h-8.7v4.17h-30.61v-9.74h2.78v-6.96h9.39v-4.17 Z "/>
<path id="cv_17" d="M888.09,1312.13v-4.17h-47.31v6.96h-2.78v9.74h21.57v4.17h50.09v-9.74h-2.78v-6.96h-18.78 Z "/>
<path id="cv_18" d="M1046.36,1312.13v-27.83h-38.96v27.83h-17.05v6.96h-2.78v9.74h19.83v4.17h38.96v-4.17h19.83v-9.74h-2.78v-6.96h-17.05 Z "/>
<path id="cv_19" d="M1402.57,1195.25h-45.92v89.05h-29.22v19.48h-12.18v4.17h-18.78v6.96h-2.78v9.74h50.09v-4.17h25.39v-19.48h4.17v-89.05h8.7v4.17h33.39v-9.74h-2.78v-6.96h-10.09v-4.17 Z "/>
<path id="cv_20" d="M1194.2,1328.83h-50.09v-9.74h2.78v-6.96h18.78v-4.17h47.31v6.96h2.78v9.74h-21.57v4.17 Z "/>
<path id="cv_21" d="M1847.49,1107.59h-27.13v-4.17h-9.74v-9.74h2.78v-6.96h41.05v6.96h2.78v9.74h-9.74v4.17 Z "/>
<path id="cv_22" d="M1673.9,1175.77v-93.23h45.92v4.17h10.09v6.96h2.78v9.74h-33.39v-4.17h-8.7v93.23h-4.17v19.48h-25.39v4.17h-43.13v-9.74h2.78v-6.96h12.52v-4.17h12.18v-19.48h28.52 Z "/>
<path id="cv_23" d="M1935.15,1093.67v9.74h41.74v-4.17h26.79v-19.48h4.17v-59.83h-9.74v2.78h-6.96v40.35h-29.22v19.48h-12.18v4.17h-11.83v6.96h-2.78 Z "/>
<path id="cv_24" d="M1046.36,48.7h-38.96v-27.83h-17.05v-6.96h-2.78v-9.74h19.83v-4.17h38.96v4.17h19.83v9.74h-2.78v6.96h-17.05v27.83 Z "/>
<path id="cv_25" d="M1530.24,112.71h-27.13v4.17h-9.74v9.74h2.78v6.96h41.05v-6.96h2.78v-9.74h-9.74v-4.17 Z "/>
<path id="cv_26" d="M1847.49,225.41h-27.13v4.17h-9.74v9.74h2.78v6.96h41.05v-6.96h2.78v-9.74h-9.74v-4.17 Z "/>
<path id="cv_27" d="M1935.15,239.33v-9.74h41.74v4.17h26.79v19.48h4.17v59.83h-9.74v-2.78h-6.96v-40.35h-29.22v-19.48h-12.18v-4.17h-11.83v-6.96h-2.78 Z "/>
<path id="cv_28" d="M2053.77,728.07h-4.17v9.74h-9.74v-2.78h-6.96v-29.92h6.96v-2.78h9.74v9.74h4.17v16 Z "/>
<path id="cv_29" d="M859.56,4.17h50.09v9.74h-2.78v6.96h-18.78v4.17h-47.31v-6.96h-2.78v-9.74h21.57v-4.17 Z "/>
<path id="cv_30" d="M1194.2,4.17h-50.09v9.74h2.78v6.96h18.78v4.17h47.31v-6.96h2.78v-9.74h-21.57v-4.17 Z "/>
<path id="cv_31" d="M1356.65,137.75v-89.05h-29.22v-19.48h-12.18v-4.17h-18.78v-6.96h-2.78v-9.74h50.09v4.17h25.39v19.48h4.17v89.05h8.7v-4.17h33.39v9.74h-2.78v6.96h-10.09v4.17h-45.92 Z "/>
<path id="cv_32" d="M1673.9,157.23v93.23h45.92v-4.17h10.09v-6.96h2.78v-9.74h-33.39v4.17h-8.7v-93.23h-4.17v-19.48h-25.39v-4.17h-43.13v9.74h2.78v6.96h12.52v4.17h12.18v19.48h28.52 Z "/>
<path id="cv_33" d="M2018.96,487.35v-17.05h-58.42v-33.39h30.61v-43.13h6.96v-2.78h9.74v41.74h18.09v4.17h19.48v26.79h4.17v59.83h-9.74v-2.78h-6.96v-33.39h-13.93 Z "/>
<path id="cv_34" d="M2018.98,862.69h-58.44v33.39h30.61v43.13h6.96v2.78h9.74v-41.74h18.09v-4.17h19.48v-26.79h4.17v-59.83h-9.74v2.78h-6.96v33.39h-13.91v17.05 Z "/>
<path id="cv_35" d="M2032.89,597.97v29.92h6.96v2.78h9.74v-9.74h4.17v-16h-4.17v-9.74h-9.74v2.78h-6.96 Z "/>
<path id="cv_36" d="M1682.25,858.52v41.74h-41.74v-41.74h41.74 Z "/>
<path id="cv_37" d="M1682.25,432.74h-41.74v41.74h41.74v-41.74 Z "/>
<path id="cv_38" d="M409.08,478.66v-50.09h-33.39v50.09h33.39 Z "/>
<path id="cv_39" d="M1043.58,428.56h-33.39v50.09h33.39v-50.09 Z "/>
<path id="cv_40" d="M1365,428.56v45.92h-41.74v-45.92h41.74 Z "/>
<path id="cv_41" d="M1323.26,858.52h38.96v41.74h-38.96v-41.74 Z "/>
<path id="cv_42" d="M726.33,428.56h-33.39v50.09h33.39v-50.09 Z "/>
<path id="cv_43" d="M692.94,854.34h33.39v50.09h-33.39v-50.09 Z "/>
<path id="cv_44" d="M409.08,854.34v50.09h-33.39v-50.09h33.39 Z "/>
<path id="cv_45" d="M1010.19,854.34h33.39v50.09h-33.39v-50.09 Z "/>
</g>
<g id="cvclr_46" stroke="#000" fill="none">
<path id="cv_47" class="ZW" d="M45.92,900.26l0,58.44M62.61,955.92l-0,-59.83M45.92,958.7h9.74l0,-2.78h6.96M8.35,869.3l0,26.79h19.48l0,4.17h18.09M40.35,845.65h-19.48M4.17,820.6l0,48.7M20.87,845.65l0,-22.26M4.17,869.3h4.17M13.91,823.38l0,-2.78M20.87,823.38h-6.96M13.91,820.6h-9.74M40.35,862.69l0,-17.05M45.92,432.74l0,-58.44M62.61,377.08l-0,59.83M4.17,512.4l0,-48.7M40.35,470.31l0,17.05h-19.48l0,22.26M13.91,509.62l0,2.78h-9.74M20.87,509.62h-6.96M8.35,436.91h19.48M4.17,463.7h4.17l0,-26.79M27.83,436.91l0,-4.17h18.09M45.92,374.3h9.74l0,2.78h6.96M1046.36,1333h-38.96M1046.36,1284.3h-38.96M1007.4,1312.13l0,-27.83M990.36,1312.13h17.05M990.36,1319.09l0,-6.96M987.57,1319.09h2.78M987.57,1328.83l0,-9.74M987.57,1328.83h19.83M1007.4,1333l0,-4.17M1063.41,1319.09l0,-6.96h-17.05M1066.19,1319.09h-2.78M1066.19,1328.83l0,-9.74M1066.19,1328.83h-19.83M1046.36,1333l0,-4.17M2007.85,900.26l0,41.74M1998.11,942.01l0,-2.78M2007.85,942.01h-9.74M2045.42,869.3l0,26.79M1991.15,939.22l0,-43.13M1998.11,939.22h-6.96M2045.42,896.09h-19.48M2025.94,900.26h-18.09M2025.94,896.09l0,4.17M2049.59,809.47l0,59.83M2032.89,845.65l0,-33.39M2018.98,845.65h13.91M2049.59,869.3h-4.17M2039.85,809.47h9.74M2039.85,812.25l0,-2.78M2032.89,812.25h6.96M1365,428.56h-41.74M1007.4,0l0,4.17M1046.36,0l0,4.17M1007.4,20.87l0,27.83M990.36,20.87h17.05M990.36,13.91l0,6.96M987.57,13.91h2.78M987.57,4.17h19.83M987.57,4.17l0,9.74M1046.36,20.87l0,27.83M1063.41,13.91l0,6.96h-17.05M1066.19,13.91h-2.78M1066.19,4.17h-19.83M1066.19,4.17l0,9.74M1046.36,0h-38.96M1991.15,393.78l0,43.13M2007.85,432.74l0,-41.74M2049.59,523.53l0,-59.83M2032.89,487.35l0,33.39h6.96l0,2.78h9.74M2025.94,436.91l0,-4.17M2045.42,436.91h-19.48M2049.59,463.7h-4.17l0,-26.79M2025.94,432.74h-18.09M2007.85,390.99h-9.74M1998.11,393.78h-6.96M1998.11,390.99l0,2.78M1046.36,1312.13l0,-27.83M1046.36,48.7h-38.96M1315.26,25.05h-18.78l0,-6.96h-2.78l0,-9.74h50.09l0,4.17h25.39l0,19.48h4.17l0,89.05h8.7l0,-4.17h33.39l0,9.74h-2.78l0,6.96h-10.09l0,4.17M1356.65,48.7h-29.22l0,-19.48h-12.18l0,-4.17M1640.51,474.48h41.74M1640.51,474.48l0,-41.74M1673.9,157.23h-28.52l0,-19.48h-12.18l0,-4.17M1960.54,470.31l0,-33.39M1991.15,436.91h-30.61M2032.89,487.35h-13.93M1640.51,858.52h41.74M1682.25,900.26h-41.74l0,-41.74M1633.2,1199.42h-12.52l0,6.96h-2.78l0,9.74h43.13l0,-4.17h25.39l0,-19.48h4.17l0,-93.23h8.7l0,4.17h33.39l0,-9.74h-2.78l0,-6.96h-10.09l0,-4.17h-45.92M1673.9,1175.77h-28.52l0,19.48h-12.18l0,4.17M1362.22,858.52l0,41.74M909.65,1328.83l0,-9.74h-2.78l0,-6.96h-18.78M888.09,1307.95h-47.31l0,6.96h-2.78l0,9.74h21.57l0,4.17h50.09M409.08,904.44h-33.39M1323.26,428.56l-0,45.92M738.51,25.05h18.78l0,-6.96h2.78l0,-9.74h-50.09l0,4.17h-25.39l0,19.48h-4.17l0,75.14h-8.7l0,-4.17h-30.61l0,9.74h2.78l0,6.96h9.39l0,4.17h43.83M697.11,48.7h29.22l0,-19.48h12.18l0,-4.17M526.31,98.79l0,4.17h-9.74l0,9.74h2.78l-0,6.96h41.05l0,-6.96h2.78l0,-9.74h-9.74l0,-4.17h-27.13M1144.11,4.17l0,9.74h2.78l0,6.96h18.78l0,4.17h47.31l0,-6.96h2.78l0,-9.74h-21.57l0,-4.17h-50.09M1402.57,137.75h-45.92M1682.25,432.74l0,41.74M1633.2,133.58h-12.52l0,-6.96h-2.78l0,-9.74h43.13l0,4.17h25.39l0,19.48h4.17l0,93.23h8.7l0,-4.17h33.39l0,9.74h-2.78l0,6.96h-10.09l0,4.17h-45.92M1673.9,157.23l0,93.23M1682.25,432.74h-41.74M1365,474.48h-41.74M2018.96,470.31h-58.42M2018.96,487.35l0,-17.05M2018.98,845.65l0,17.05M1960.54,862.69l0,33.39h30.61M1682.25,858.52l0,41.74M1673.9,1175.77l0,-93.23M909.65,4.17l0,9.74h-2.78l0,6.96h-18.78l0,4.17h-47.31M422.65,119.66h13.22l0,-6.96h2.78l0,-9.74h-45.92l0,4.17h-25.39l0,19.48h-4.17l0,79.31h-8l0,-4.17h-31.31l0,9.74h2.78l0,6.96h10.09l0,4.17M379.86,222.63l0,-79.31h30.61l0,-19.48h12.18l0,-4.17M1362.22,900.26h-38.96l0,-41.74M422.65,1213.34h13.22l0,6.96h2.78l0,9.74h-45.92l0,-4.17h-25.39l0,-19.48h-4.17l0,-79.31h-8l0,4.17h-31.31l0,-9.74h2.78l0,-6.96h10.09l0,-4.17h43.13l0,79.31h30.61l0,19.48h12.18l0,4.17M1365,428.56l0,45.92M888.09,1312.13l0,-4.17M336.73,222.63h43.13M2018.98,862.69h-58.44M526.31,1234.21l0,-4.17h-9.74l0,-9.74h2.78l0,-6.96h41.05l0,6.96h2.78l0,9.74h-9.74l0,4.17h-27.13M121.4,1131.24h-44.53l0,-4.17h-26.79l0,-19.48h-4.17l0,-70.96h9.74l0,2.78h6.96l0,51.48h32l0,19.48h12.18l0,4.17h11.83l0,6.96h2.78l0,9.74M40.35,862.69h52.87l0,33.39M62.61,896.09h30.61M209.06,1135.42l0,-4.17h-9.74l0,-9.74h2.78l0,-6.96h41.05l0,6.96h2.78l0,9.74h-9.74l0,4.17h-27.13M375.69,904.44l0,-50.09h33.39l0,50.09M0,712.07h4.17l0,-9.74h9.74l0,2.78h6.96l0,41.05h-6.96l0,2.78h-9.74l0,-9.74h-4.17l0,-27.13M20.87,586.84h-6.96l0,-2.78h-9.74l0,9.74h-4.17l0,27.13h4.17l0,9.74h9.74l0,-2.78h6.96l0,-41.05M93.23,470.31l0,-33.39M62.61,436.91h30.61M40.35,470.31h52.87M409.08,428.56h-33.39l0,50.09h33.39l-0,-50.09M120.01,201.76h-43.13l0,4.17h-26.79l0,19.48h-4.17l0,70.96h9.74l0,-2.78h6.96l0,-51.48h30.61l0,-19.48h12.18l0,-4.17h11.83l0,-6.96h2.78l0,-9.74M243.15,218.46h-41.05l0,-6.96h-2.78l0,-9.74h9.74l0,-4.17h27.13l0,4.17h9.74l0,9.74h-2.78l0,6.96M1503.1,1220.29l0,-4.17h-9.74l0,-9.74h2.78l0,-6.96h41.05l0,6.96h2.78l0,9.74h-9.74l0,4.17h-27.13M697.11,1209.16l0,75.14h29.22l0,19.48h12.18l0,4.17h18.78l0,6.96h2.78l0,9.74h-50.09l0,-4.17h-25.39l0,-19.48h-4.17l0,-75.14h-8.7l0,4.17h-30.61l0,-9.74h2.78l0,-6.96h9.39l0,-4.17h43.83M726.33,904.44h-33.39M726.33,854.34l0,50.09M692.94,904.44l0,-50.09h33.39M1043.58,854.34l0,50.09h-33.39l0,-50.09h33.39M1144.11,1328.83l0,-9.74h2.78l0,-6.96h18.78l0,-4.17h47.31l0,6.96h2.78l0,9.74h-21.57l0,4.17h-50.09M1356.65,1195.25l0,89.05h-29.22l0,19.48h-12.18l0,4.17h-18.78l0,6.96h-2.78l0,9.74h50.09l0,-4.17h25.39l0,-19.48h4.17l0,-89.05h8.7l0,4.17h33.39l0,-9.74h-2.78l0,-6.96h-10.09l0,-4.17h-45.92M1323.26,858.52h38.96M1935.15,1103.41h41.74l0,-4.17h26.79l0,-19.48h4.17l0,-59.83h-9.74l0,2.78h-6.96l0,40.35h-29.22l0,19.48h-12.18l0,4.17h-11.83l0,6.96h-2.78l0,9.74M1820.35,1107.59l0,-4.17h-9.74l0,-9.74h2.78l0,-6.96h41.05l0,6.96h2.78l0,9.74h-9.74l0,4.17h-27.13M1503.1,112.71l0,4.17h-9.74l0,9.74h2.78l0,6.96h41.05l0,-6.96h2.78l0,-9.74h-9.74l0,-4.17h-27.13M692.94,428.56l0,50.09h33.39l0,-50.09h-33.39M1010.19,478.66h33.39l0,-50.09M1010.19,428.56l0,50.09M1043.58,428.56h-33.39M840.78,25.05l0,-6.96h-2.78l0,-9.74h21.57l0,-4.17h50.09M1935.15,229.59h41.74l0,4.17h26.79l0,19.48h4.17l0,59.83h-9.74l0,-2.78h-6.96l0,-40.35h-29.22l0,-19.48h-12.18l0,-4.17h-11.83l0,-6.96h-2.78l0,-9.74M2049.59,728.07l0,9.74h-9.74l0,-2.78h-6.96l-0,-29.92h6.96l0,-2.78h9.74l0,9.74h4.17l0,16h-4.17M2039.85,630.67h9.74l0,-9.74h4.17l0,-16h-4.17l0,-9.74h-9.74l0,2.78h-6.96l-0,29.92M1820.35,225.41l0,4.17h-9.74l0,9.74h2.78l0,6.96h41.05l0,-6.96h2.78l0,-9.74h-9.74l0,-4.17h-27.13M697.11,123.84l0,-75.14M1356.65,137.75l0,-89.05" />
</g>
<g style="font-family: arial, helvetica, sans-serif" stroke="none" fill="#7F0000">
<g font-size="119.970000" stroke="none" fill="#7F0000">
<text id="cv_48" transform="scale(1.111111 1) translate(369.68 1066.4) rotate(330) " >For Demonstration Purposes Only</text>
<text id="cv_49" transform="scale(1.111111 1) translate(739.36 1066.4) rotate(330) " >Tailor Made Software, Ltd</text>
</g>
</g>
</g>
<g id="layer_WA" class="layer_WA"  cvjs:layerName="WA" cvjs:plottable="YES"
 cvjs:status="ON" visibility="visible">
<g id="cvclr_50" stroke="#FF7F00" fill="none">
<path id="cv_51" class="ZW" d="M93.23,879.39H283.85M275.51,871.04h8.35M283.85,879.39l0,-8.35M333.95,879.39l0,-8.35M342.29,871.04h-8.35M375.69,879.39h-41.74M275.51,461.96h8.35l0,-8.35M325.6,461.96l0,-8.35M342.29,461.96h-16.7M1154.2,763.9h-19.48M1154.2,769.47h-19.48M1054.71,769.47h29.92l0,-5.57M1134.72,769.47l0,-5.57M1154.2,660.13h5.57M1159.77,666.5l0,-6.37M1154.2,697.11l0,-36.99M375.69,904.44l0,-25.05M1154.2,763.9l0,-16.7M972.27,763.9H1084.63M1154.2,576.64h5.57M1159.77,569.1l0,7.54M1154.2,576.64l0,-7.54h-18.78M233.07,453.61h50.79M375.69,453.61h-50.09M692.94,887.74H409.08M717.98,927.4H517.62M726.33,919.05H525.96M692.94,896.09H525.96M764.25,763.9H655.02M705.46,772.25h-50.44M692.94,445.26H409.08M692.94,436.91H409.08M764.25,569.1H655.02M705.46,560.75h-50.44M275.51,818.84L275.51,598.32M388.21,854.34l0,-82.09M396.56,854.34l0,-82.09M342.29,871.04L342.29,763.9M350.64,871.04l0,-98.79M219.85,808.43l0,-76.53M267.16,871.04H93.23M275.43,879.39H93.23M45.92,900.26l0,58.44M62.61,955.92l0,-59.83M45.92,958.7h9.74l0,-2.78h6.96M8.35,869.3l0,26.79h19.48l0,4.17h18.09M40.35,845.65h-19.48M4.17,820.6l0,48.7M20.87,845.65l0,-22.26M4.17,869.3h4.17M13.91,823.38l0,-2.78M20.87,823.38h-6.96M13.91,820.6h-9.74M40.35,862.69l0,-17.05M517.62,896.09H409.08M275.51,860.58l0,10.46M267.16,808.43h-47.31M267.16,871.04l0,-10.46h8.35M267.16,818.84l0,-10.41M267.16,818.84h8.35M375.69,871.04h-25.05M517.62,896.09l0,31.31M525.96,896.09l0,22.96M221.93,453.61L221.93,218.46M233.07,453.61L233.07,218.46M219.85,723.55H20.87M219.85,731.9H20.87M267.16,545.44H81.03M267.16,537.1H77.57M20.87,593.8l56.7,-56.7M20.87,605.6l60.16,-60.16M45.92,432.74l0,-58.44M62.61,377.08l0,59.83M4.17,512.4l0,-48.7M40.35,470.31l0,17.05h-19.48l0,22.26M13.91,509.62l0,2.78h-9.74M20.87,509.62h-6.96M8.35,436.91h19.48M4.17,463.7h4.17l0,-26.79M27.83,436.91l0,-4.17h18.09M163.49,453.61h-70.27M163.49,461.96h-70.27M163.49,453.61l0,8.35M45.92,374.3h9.74l0,2.78h6.96M388.21,478.66l0,82.09M396.56,478.66l0,82.09M275.51,556.58l0,-32M342.29,520.4l0,48.7M350.64,520.4l0,40.35M445.61,772.25h-49.05M445.61,763.9H342.29M447,569.1H342.29M447,560.75h-50.44M267.16,691.55l0,-93.23M228.2,800.08L228.2,699.89M267.16,800.08L267.16,699.89M267.16,800.08h-38.96M267.16,699.89h-38.96M267.16,691.55h-47.31M219.85,723.55l0,-32M388.21,772.25h-37.57M267.16,598.32h8.35M267.16,556.58l0,-11.13M267.16,556.58h8.35M388.21,560.75h-37.57M596.58,772.25h-89.75M596.58,763.9h-89.75M445.61,772.25l0,-8.35M506.83,772.25l0,-8.35M596.58,772.25l0,-8.35M655.02,772.25l0,-8.35M596.58,560.75h-91.14M596.58,569.1h-91.14M447,560.75l0,8.35M505.44,560.75l0,8.35M596.58,560.75l0,8.35M655.02,560.75l0,8.35M267.16,474.48l0,-12.52M275.51,474.48l0,-12.52M267.16,537.1l0,-12.52h8.35M267.16,474.48h8.35M267.16,461.96h-53.57M221.93,453.61h-8.35l0,8.35M342.29,520.4h8.35M375.69,461.96h-25.05M342.29,470.31h8.35M342.29,461.96l0,8.35M350.64,461.96l0,8.35M713.81,854.34l0,-82.09M705.46,854.34l0,-82.09M1054.71,883.56L1054.71,769.47M1046.36,875.22L1046.36,772.25M1031.06,854.34l0,-82.09M1022.71,854.34l0,-82.09M1154.2,883.56L1154.2,769.47M1162.55,875.22L1162.55,747.2M1385.81,766.8L1385.81,900.26M1380.24,772.37l0,86.15M1335.78,858.52L1335.78,674.85M1344.13,858.52l0,-86.15M1046.36,1333h-38.96M1046.36,1284.3h-38.96M1007.4,1312.13l0,-27.83M990.36,1312.13h17.05M990.36,1319.09l0,-6.96M987.57,1319.09h2.78M987.57,1328.83l0,-9.74M987.57,1328.83h19.83M1007.4,1333l0,-4.17M1046.36,1312.13l0,-27.83M1063.41,1319.09l0,-6.96h-17.05M1066.19,1319.09h-2.78M1066.19,1328.83l0,-9.74M1066.19,1328.83h-19.83M1046.36,1333l0,-4.17M1010.19,887.74H726.33M793.12,896.09h-66.79M801.47,935.74h-83.49M793.12,927.4h-66.79M717.98,927.4l0,8.35M726.33,919.05l0,8.35M801.47,896.09l0,39.66M793.12,896.09l0,31.31M1054.71,883.56h-11.13M1046.36,875.22h-2.78M1323.26,883.56H1154.2M1323.26,875.22H1162.55M1385.81,900.26h-20.81M1380.24,894.7h-15.24M1365,858.52h15.24M1365,864.08h15.24M2007.85,900.26l0,41.74M1998.11,942.01l0,-2.78M2007.85,942.01h-9.74M2045.42,869.3l0,26.79M1991.15,939.22l0,-43.13M1998.11,939.22h-6.96M2045.42,896.09h-19.48M2025.94,900.26h-18.09M2025.94,896.09l0,4.17M2049.59,809.47l0,59.83M2032.89,845.65l0,-33.39M2013.41,845.65h19.48M2013.41,862.69l0,-17.05M2049.59,869.3h-4.17M2039.85,809.47h9.74M2039.85,812.25l0,-2.78M2032.89,812.25h6.96M1143.76,436.91H1043.58M1210.55,428.56H1043.58M713.81,478.66l0,82.09M705.46,478.66l0,82.09M1022.71,478.66l0,82.09M1031.06,478.66l0,82.09M913.83,763.9h-91.14M913.83,772.25h-91.14M913.83,569.1h-91.14M913.83,560.75h-91.14M764.25,772.25h-50.44M764.25,772.25l0,-8.35M822.69,772.25l0,-8.35M764.25,560.75h-50.44M764.25,560.75l0,8.35M822.69,560.75l0,8.35M1022.71,772.25h-50.44M913.83,772.25l0,-8.35M972.27,772.25l0,-8.35M1046.36,772.25h-15.31M1085.32,569.1H972.27M1022.71,560.75h-50.44M913.83,560.75l0,8.35M972.27,560.75l0,8.35M1085.32,560.75h-54.27M1085.25,569.15l0,-8.4M1010.19,445.26H726.33M1010.19,436.91H801.47M717.98,428.56l0,-36.18M726.33,428.56l0,-27.83M793.12,436.91l0,-36.18M801.47,436.91l0,-44.53M793.12,400.73h-66.79M801.47,392.39h-83.49M1152.11,560.75L1152.11,436.91M1143.76,560.75L1143.76,436.91M1210.55,569.1l0,-33.2M1202.2,560.75l0,-24.85M1344.13,772.37h36.11M1344.13,766.8h41.68M1154.2,697.11l0,-30.61M1335.78,674.85H1162.55M1162.55,747.2h-8.35M1162.55,697.11h-8.35M1162.55,697.11l0,-22.26M1344.13,666.5H1159.77M1202.2,560.75h-50.09M1210.55,569.1h-50.79M1135.42,569.15l0,-8.4M1143.76,560.75h-8.35M1210.55,485.81l0,-57.25M1202.2,485.81l0,-48.9M1210.55,535.9h-8.35M1210.55,485.81h-8.35M1202.2,436.91h-50.09M1007.4,0l0,4.17M1046.36,0l0,4.17M1046.36,48.7h-38.96M1007.4,20.87l0,27.83M990.36,20.87h17.05M990.36,13.91l0,6.96M987.57,13.91h2.78M987.57,4.17h19.83M987.57,4.17l0,9.74M1046.36,20.87l0,27.83M1063.41,13.91l0,6.96h-17.05M1066.19,13.91h-2.78M1066.19,4.17h-19.83M1066.19,4.17l0,9.74M1046.36,0h-38.96M1991.15,393.78l0,43.13M2007.85,432.74l0,-41.74M2049.59,523.53l0,-59.83M2013.41,470.31l0,17.05M2032.89,487.35l0,33.39h6.96l0,2.78h9.74M2013.41,487.35h19.48M2025.94,436.91l0,-4.17M2045.42,436.91h-19.48M2049.59,463.7h-4.17l0,-26.79M2025.94,432.74h-18.09M2007.85,390.99h-9.74M1998.11,393.78h-6.96M1998.11,390.99l0,2.78M793.12,436.91h-66.79M1344.13,766.8L1344.13,666.5M1380.24,864.08l0,30.61M121.4,1131.24h-44.53l0,-4.17h-26.79l0,-19.48h-4.17l0,-70.96h9.74l0,2.78h6.96l0,51.48h32l0,19.48h12.18l0,4.17h11.83l0,6.96h2.78l0,9.74M40.35,862.69h52.87l0,8.35M93.23,879.39l0,16.7M62.61,896.09h30.61M422.65,1213.34h13.22l0,6.96h2.78l0,9.74h-45.92l0,-4.17h-25.39l0,-19.48h-4.17l0,-79.31h-8l0,4.17h-31.31l0,-9.74h2.78l0,-6.96h10.09l0,-4.17h43.13l0,79.31h30.61l0,19.48h12.18l0,4.17M209.06,1135.42l0,-4.17h-9.74l0,-9.74h2.78l0,-6.96h41.05l0,6.96h2.78l0,9.74h-9.74l0,4.17h-27.13M526.31,1234.21l0,-4.17h-9.74l0,-9.74h2.78l0,-6.96h41.05l0,6.96h2.78l0,9.74h-9.74l0,4.17h-27.13M409.08,896.09l0,8.35h-33.39M375.69,871.04l0,-16.7h12.52M396.56,854.34h12.52l0,33.39M0,712.07h4.17l0,-9.74h9.74l0,2.78h6.96l0,18.44M20.87,731.9l0,14.26h-6.96l0,2.78h-9.74l0,-9.74h-4.17l0,-27.13M20.87,593.8l0,-6.96h-6.96l0,-2.78h-9.74l0,9.74h-4.17l0,27.13h4.17l0,9.74h9.74l0,-2.78h6.96l0,-22.28M93.23,453.61l0,-16.7M62.61,436.91h30.61M40.35,470.31h52.87l0,-8.35M409.08,436.91l0,-8.35h-33.39l0,25.05M375.69,461.96l0,16.7h12.52M396.56,478.66h12.52l0,-33.39M120.01,201.76h-43.13l0,4.17h-26.79l0,19.48h-4.17l0,70.96h9.74l0,-2.78h6.96l0,-51.48h30.61l0,-19.48h12.18l0,-4.17h11.83l0,-6.96h2.78l0,-9.74M422.65,119.66h13.22l0,-6.96h2.78l0,-9.74h-45.92l0,4.17h-25.39l0,19.48h-4.17l0,79.31h-8l0,-4.17h-31.31l0,9.74h2.78l0,6.96h10.09l0,4.17h43.13l0,-79.31h30.61l0,-19.48h12.18l0,-4.17M221.93,218.46h-19.83l0,-6.96h-2.78l0,-9.74h9.74l0,-4.17h27.13l0,4.17h9.74l0,9.74h-2.78l0,6.96h-10.09M526.31,98.79l0,4.17h-9.74l0,9.74h2.78l0,6.96h41.05l0,-6.96h2.78l0,-9.74h-9.74l0,-4.17h-27.13M1503.1,1220.29l0,-4.17h-9.74l0,-9.74h2.78l0,-6.96h41.05l0,6.96h2.78l0,9.74h-9.74l0,4.17h-27.13M909.65,1328.83l0,-9.74h-2.78l0,-6.96h-18.78l0,-4.17h-47.31l0,6.96h-2.78l0,9.74h21.57l0,4.17h50.09M738.51,1307.95h18.78l0,6.96h2.78l0,9.74h-50.09l0,-4.17h-25.39l0,-19.48h-4.17l0,-75.14h-8.7l0,4.17h-30.61l0,-9.74h2.78l0,-6.96h9.39l0,-4.17h43.83l0,75.14h29.22l0,19.48h12.18l0,4.17M1010.19,896.09H801.47M692.94,904.44l0,-8.35M726.33,896.09l0,8.35h-33.39M713.81,854.34h12.52l0,33.39M692.94,887.74l0,-33.39h12.52M1043.58,883.56l0,20.87h-33.39l0,-50.09h12.52M1031.06,854.34h12.52l0,20.87M1144.11,1328.83l0,-9.74h2.78l0,-6.96h18.78l0,-4.17h47.31l0,6.96h2.78l0,9.74h-21.57l0,4.17h-50.09M1315.26,1307.95h-18.78l0,6.96h-2.78l0,9.74h50.09l0,-4.17h25.39l0,-19.48h4.17l0,-89.05h8.7l0,4.17h33.39l0,-9.74h-2.78l0,-6.96h-10.09l0,-4.17h-45.92l0,89.05h-29.22l0,19.48h-12.18l0,4.17M1365,900.26h-41.74l0,-16.7M1344.13,858.52h20.87M1323.26,875.22l0,-16.7h12.52M1365,864.08l0,30.61M2013.41,862.69h-52.87l0,33.39M1991.15,896.09h-30.61M1935.15,1103.41h41.74l0,-4.17h26.79l0,-19.48h4.17l0,-59.83h-9.74l0,2.78h-6.96l0,40.35h-29.22l0,19.48h-12.18l0,4.17h-11.83l0,6.96h-2.78l0,9.74M1820.35,1107.59l0,-4.17h-9.74l0,-9.74h2.78l0,-6.96h41.05l0,6.96h2.78l0,9.74h-9.74l0,4.17h-27.13M1633.2,1199.42h-12.52l0,6.96h-2.78l0,9.74h43.13l0,-4.17h25.39l0,-19.48h4.17l0,-93.23h8.7l0,4.17h33.39l0,-9.74h-2.78l0,-6.96h-10.09l0,-4.17h-45.92l0,93.23h-28.52l0,19.48h-12.18l0,4.17M1640.51,858.52h41.74l0,41.74h-41.74l0,-41.74M1503.1,112.71l0,4.17h-9.74l0,9.74h2.78l0,6.96h41.05l0,-6.96h2.78l0,-9.74h-9.74l0,-4.17h-27.13M692.94,445.26l0,33.39h33.39l0,-33.39M717.98,428.56h-25.05l0,8.35M726.33,436.91l0,-8.35M1031.06,478.66h12.52l0,-41.74M1010.19,445.26l0,33.39h12.52M1043.58,428.56h-33.39l0,8.35M1323.26,474.48h41.74l0,-41.74h-41.74l0,41.74M738.51,25.05h18.78l0,-6.96h2.78l0,-9.74h-50.09l0,4.17h-25.39l0,19.48h-4.17l0,75.14h-8.7l0,-4.17h-30.61l0,9.74h2.78l0,6.96h9.39l0,4.17h43.83l0,-75.14h29.22l0,-19.48h12.18l0,-4.17M909.65,4.17l0,9.74h-2.78l0,6.96h-18.78l0,4.17h-47.31l0,-6.96h-2.78l0,-9.74h21.57l0,-4.17h50.09M1315.26,25.05h-18.78l0,-6.96h-2.78l0,-9.74h50.09l0,4.17h25.39l0,19.48h4.17l0,89.05h8.7l0,-4.17h33.39l0,9.74h-2.78l0,6.96h-10.09l0,4.17h-45.92l0,-89.05h-29.22l0,-19.48h-12.18l0,-4.17M1144.11,4.17l0,9.74h2.78l0,6.96h18.78l0,4.17h47.31l0,-6.96h2.78l0,-9.74h-21.57l0,-4.17h-50.09M1935.15,229.59h41.74l0,4.17h26.79l0,19.48h4.17l0,59.83h-9.74l0,-2.78h-6.96l0,-40.35h-29.22l0,-19.48h-12.18l0,-4.17h-11.83l0,-6.96h-2.78l0,-9.74M2013.41,470.31h-52.87l0,-33.39M1991.15,436.91h-30.61M1640.51,474.48h41.74l0,-41.74h-41.74l0,41.74M2049.59,728.07l0,9.74h-9.74l0,-2.78h-6.96l0,-29.92h6.96l0,-2.78h9.74l0,9.74h4.17l0,16h-4.17M2049.59,604.93l0,-9.74h-9.74l0,2.78h-6.96l0,29.92h6.96l0,2.78h9.74l0,-9.74h4.17l0,-16h-4.17M1633.2,133.58h-12.52l0,-6.96h-2.78l0,-9.74h43.13l0,4.17h25.39l0,19.48h4.17l0,93.23h8.7l0,-4.17h33.39l0,9.74h-2.78l0,6.96h-10.09l0,4.17h-45.92l0,-93.23h-28.52l0,-19.48h-12.18l0,-4.17M1820.35,225.41l0,4.17h-9.74l0,9.74h2.78l0,6.96h41.05l0,-6.96h2.78l0,-9.74h-9.74l0,-4.17h-27.13" />
</g>
<g style="font-family: arial, helvetica, sans-serif" stroke="none" fill="#7F0000">
<g font-size="119.970000" stroke="none" fill="#7F0000">
<text id="cv_52" transform="scale(1.111111 1) translate(369.68 1066.4) rotate(330) " >For Demonstration Purposes Only</text>
<text id="cv_53" transform="scale(1.111111 1) translate(739.36 1066.4) rotate(330) " >Tailor Made Software, Ltd</text>
</g>
</g>
</g>
<g id="layer_RM_" class="layer_RM_"  cvjs:layerName="RM_" cvjs:plottable="YES"
 cvjs:status="ON" visibility="visible">
<g id="cvclr_54" stroke="#007CA5" fill="none">
<path id="cv_55" class=" ZW" d="M274.11,879.39H93.23v16.7h-30.61V1110.37h44.18v4.17H274.11V879.39M378.47,1010.19V1110.37h1.39v98.79h42.79v4.17H653.28v-4.17h45.22V1010.19H378.47M851.56,1010.19H698.5V1146.55H851.56V1010.19M698.5,1146.55V1282.91H851.56V1146.55H698.5M1090.89,1010.19H937.83V1146.55H1090.89V1010.19M1090.89,1146.55H937.83V1282.91H1090.89V1146.55M1243.95,1146.55H1090.89V1282.91H1243.95V1146.55M1243.95,1010.19H1090.89V1146.55H1243.95V1010.19M1622.42,748.59V612.23H1469.36V748.59H1622.42M1622.42,475.87H1469.36V612.23H1622.42V475.87M1622.42,612.23H1775.48V475.87H1622.42V612.23M1622.42,748.59H1775.48V612.23H1622.42V748.59M1675.29,859.91H1538.93V980.94H1675.29V859.91M1675.29,1082.54V980.94H1358.05V1195.25h44.53v4.17H1633.2v-4.17h40.7V1082.54h1.39M1991.15,864.08H1747.65v-4.17h-72.35V1082.54h44.53v4.17H1949.76v-4.17h41.4V864.08M1852.77,667.89V864.08H1991.15v-1.39h22.26v-17.05h19.48V667.89H1852.77M1852.77,667.89H2032.89V487.35h-19.48v-17.05h-22.26v-1.39H1852.77V667.89M1719.82,246.28v4.17h-44.53V475.87H1775.48v-6.96H1991.15V250.46h-41.4v-4.17H1719.82M1675.29,326.97v-76.51h-1.39V137.75h-40.7v-4.17H1402.57v4.17h-44.53V326.97H1675.29M1243.95,322.81V186.45H1090.89V322.81H1243.95M1090.89,322.81V186.45H937.83V322.81H1090.89M937.83,186.45H1090.89V50.09H937.83V186.45M851.56,322.81V186.45H698.5V322.81H851.56M851.56,186.45V50.09H698.5V186.45H851.56M505.24,322.81H698.5V123.84h-45.22v-4.17H505.24V322.81M505.24,119.66h-82.59v4.17h-42.79v98.79h-8.21V322.81H505.24V119.66M1090.89,186.45H1243.95V50.09H1090.89V186.45M1143.76,569.1V428.56h66.79V569.1h-66.79M801.47,896.09H517.62v31.31H717.98v8.35h83.49v-39.66M1143.76,428.56H1043.58v50.09h-12.52v90.44H1143.76V428.56M388.21,478.66h-12.52v-25.05h-33.39V569.1h45.92v-90.44M275.51,691.55h-55.66V808.43h55.66V691.55M219.85,727.72H20.87V845.65h19.48v17.05h22.26v33.39h30.61v-16.7H275.51v-70.96h-55.66v-80.7M275.51,541.27H79.3l-58.43,58.43V727.72H219.85v-36.18h55.66V541.27M275.51,453.61h-42.44v8.35H93.23v8.35h-52.87v17.05h-19.48V599.7l58.43,-58.43H275.51v-87.66M233.07,218.46H105.4v4.17h-42.79V470.31h30.61v-8.35H233.07v-8.35V218.46M1156.98,569.1H342.29V453.61h-66.79V879.39h66.79V763.9H1054.71v2.78h99.49V666.5h2.78v-97.4M551.01,569.1V436.91H409.08v-8.35h-33.39v50.09h12.52v90.44H551.01M709.63,569.1v-90.44h16.7v-50.09h-33.39v8.35H551.01V569.1H709.63M868.26,569.1V436.91H726.33v41.74h-16.7v90.44H868.26M1031.06,569.1v-90.44h12.52v-50.09h-33.39v8.35H868.26V569.1H1031.06M868.26,896.09V763.9H1054.71V883.56h-11.13v20.87h-33.39v-8.35H868.26M709.63,763.9H868.26V896.09H709.63V763.9M551.01,763.9H709.63V896.09H551.01V763.9M388.21,763.9v90.44h20.87v41.74H551.01V763.9H388.21M801.47,392.39h-83.49v36.18h8.35v8.35h75.14v-44.53M1344.13,766.8V666.5H1154.2V883.56H1323.26v16.7h38.96v-41.74h-18.09v-91.72M1385.81,766.8h-41.68v91.72h18.09v5.57h23.59v-97.28M409.08,854.34h-20.87v-90.44h-45.92V879.39h33.39v25.05h33.39v-8.35v-41.74" />
</g>
<g style="font-family: arial, helvetica, sans-serif" stroke="none" fill="#7F0000">
<g font-size="119.970000" stroke="none" fill="#7F0000">
<text id="cv_56" transform="scale(1.111111 1) translate(369.68 1066.4) rotate(330) " >For Demonstration Purposes Only</text>
<text id="cv_57" transform="scale(1.111111 1) translate(739.36 1066.4) rotate(330) " >Tailor Made Software, Ltd</text>
</g>
</g>
</g>
<g id="layer_GROS_24_" class="layer_GROS_24_"  cvjs:layerName="GROS$" cvjs:plottable="YES"
 cvjs:status="ON" visibility="visible">
<g id="cvclr_58" stroke="#FF3F00" fill="none">
<path id="cv_59" class=" ZW" d="M76.88,201.76v4.17h-26.79v19.48h-4.17V432.74h-18.09v4.17h-19.48v26.79h-4.17V593.8h-4.17v27.13h4.17v91.14h-4.17v27.13h4.17V869.3h4.17v26.79h19.48v4.17h18.09V1107.59h4.17v19.48h26.79v4.17H209.06v4.17h27.13v-4.17H355.17v-4.17h8v79.31h4.17v19.48h25.39v4.17H526.31v4.17h27.13v-4.17H671.72v-4.17h8.7v75.14h4.17v19.48h25.39v4.17H859.56v4.17H1007.4v4.17h38.96v-4.17H1194.2v-4.17H1343.78v-4.17h25.39v-19.48h4.17v-89.05h8.7v4.17H1503.1v4.17h27.13v-4.17H1661.03v-4.17h25.39v-19.48h4.17v-93.23h8.7v4.17H1820.35v4.17h27.13v-4.17H1976.89v-4.17h26.79v-19.48h4.17V900.26h18.09v-4.17h19.48v-26.79h4.17V728.07h4.17v-16h-4.17v-91.14h4.17v-16h-4.17V463.7h-4.17v-26.79h-19.48v-4.17h-18.09V253.24h-4.17v-19.48h-26.79v-4.17H1847.49v-4.17h-27.13v4.17H1699.3v4.17h-8.7v-93.23h-4.17v-19.48h-25.39v-4.17H1530.24v-4.17h-27.13v4.17H1382.05v4.17h-8.7v-89.05h-4.17v-19.48h-25.39v-4.17H1194.2v-4.17H1046.36v-4.17h-38.96v4.17H859.56v4.17H709.98v4.17h-25.39v19.48h-4.17v75.14h-8.7v-4.17H553.45v-4.17h-27.13v4.17H392.73v4.17h-25.39v19.48h-4.17v79.31h-8v-4.17H236.2v-4.17h-27.13v4.17H76.88M697.11,123.84h-43.83v-4.17H422.65v4.17h-42.79v98.79h-43.13v-4.17H105.4v4.17h-42.79V470.31h-22.26v17.05h-19.48V845.65h19.48v17.05h22.26V1110.37h44.18v4.17H336.73v-4.17h43.13v98.79h42.79v4.17H653.28v-4.17h43.83v94.62h41.4v4.17H888.09v4.17H1165.68v-4.17H1315.26v-4.17h41.4V1195.25h45.92v4.17H1633.2v-4.17h40.7V1082.54h45.92v4.17H1949.76v-4.17h41.4V862.69h22.26v-17.05h19.48V487.35h-19.48v-17.05h-22.26V250.46h-41.4v-4.17H1719.82v4.17h-45.92V137.75h-40.7v-4.17H1402.57v4.17h-45.92V29.22h-41.4v-4.17H1165.68v-4.17H888.09v4.17H738.51v4.17h-41.4v94.62" />
</g>
<g style="font-family: arial, helvetica, sans-serif" stroke="none" fill="#7F0000">
<g font-size="119.970000" stroke="none" fill="#7F0000">
<text id="cv_60" transform="scale(1.111111 1) translate(369.68 1066.4) rotate(330) " >For Demonstration Purposes Only</text>
<text id="cv_61" transform="scale(1.111111 1) translate(739.36 1066.4) rotate(330) " >Tailor Made Software, Ltd</text>
</g>
</g>
</g>
<g id="layer_PL_2D_MISC" class="layer_PL_2D_MISC"  cvjs:layerName="PL-MISC" cvjs:plottable="YES"
 cvjs:status="ON" visibility="visible">
<g id="cvclr_62" stroke="#29A500" fill="none">
<path id="cv_63" class="ZW" d="M525.96,902.35L692.94,919.05M525.96,919.05L692.94,902.35M388.21,772.25l-37.57,82.09M350.64,772.25l37.57,82.09M548.23,772.25L548.23,887.74M553.79,772.25L553.79,887.74M548.23,560.75L548.23,445.26M553.79,560.75L553.79,445.26M267.16,699.89L228.2,800.08M228.2,699.89L267.16,800.08M865.48,772.25L865.48,887.74M871.04,772.25L871.04,887.74M1344.13,772.37l36.11,86.15M1344.13,858.52l36.11,-86.15M726.33,902.35l66.79,25.05M726.33,927.4l66.79,-25.05M865.48,560.75L865.48,445.26M871.04,560.75L871.04,445.26M726.33,400.73l66.79,25.05M726.33,425.78l66.79,-25.05M726.33,425.78h66.79M375.69,854.34h-25.05M726.33,904.44l0,14.61M692.94,904.44l0,14.61" />
</g>
<g style="font-family: arial, helvetica, sans-serif" stroke="none" fill="#7F0000">
<g font-size="119.970000" stroke="none" fill="#7F0000">
<text id="cv_64" transform="scale(1.111111 1) translate(369.68 1066.4) rotate(330) " >For Demonstration Purposes Only</text>
<text id="cv_65" transform="scale(1.111111 1) translate(739.36 1066.4) rotate(330) " >Tailor Made Software, Ltd</text>
</g>
</g>
</g>
<g id="layer_PL_2D_TOIL" class="layer_PL_2D_TOIL"  cvjs:layerName="PL-TOIL" cvjs:plottable="YES"
 cvjs:status="ON" visibility="visible">
<g id="cvclr_66" stroke="#29A500" fill="none">
<path id="cv_67" class="ZW" d="M130.8,805.64l0,2.78M137.75,805.64l0,2.78M171.15,805.64l0,2.78M182.28,805.64l0,2.78M215.67,805.64l0,2.78M190.33,848.36l29.52,-29.52M137.75,808.43h-6.96M182.28,808.43h-11.13M219.85,860.58l0,10.46M222.63,860.58l0,10.46M219.85,860.58h2.78M219.85,808.43h-4.17M222.63,808.43l0,10.41M219.85,808.43l0,10.41h2.78M89.05,723.55l0,-73.05M86.27,723.55l0,-73.05M133.58,723.55l0,-73.05M130.8,723.55l0,-73.05M175.32,723.55l0,-73.05M178.1,723.55l0,-73.05M133.58,804.95l0,-73.05M130.8,804.95l0,-73.05M175.32,804.95l0,-73.05M178.1,804.95l0,-73.05M137.75,805.64h-6.96M130.8,804.95h2.78M182.28,805.64h-11.13M178.1,804.95h-2.78M93.23,649.8h-6.96M93.23,647.02h-6.96M93.23,649.8l0,-2.78M86.27,647.02l0,2.78M89.05,650.5h-2.78M137.75,649.8h-11.13M137.75,647.02h-11.13M126.62,649.8l0,-2.78M133.58,650.5h-2.78M137.75,649.8l0,-2.78M182.28,647.02h-11.13M182.28,649.8h-11.13M182.28,649.8l0,-2.78M171.15,649.8l0,-2.78M178.1,650.5h-2.78M219.85,691.55l0,-41.74M222.63,691.55l0,-41.74M219.85,805.64h-4.17M219.85,608.06l0,-62.61M222.63,608.06l0,-62.61M222.63,641.45h-2.78M219.85,647.02h-4.17M219.85,649.8h-4.17M222.63,647.02l0,-5.57M219.85,647.02l0,-5.57M228.2,647.02h-5.57M228.2,649.8h-5.57M222.63,641.45h-2.78M228.2,647.02l0,2.78M215.67,649.8l0,-2.78M222.63,608.06h-2.78M267.16,649.8h-5.57M267.16,647.02h-5.57M261.59,649.8l0,-2.78M81.03,545.44l-60.16,60.16M219.85,805.64L219.85,649.8M1323.57,875.31H1162.8M1162.61,874.85L1162.61,747.2M1335.63,674.93L1335.63,858.58M1162.61,674.93H1335.63M1162.61,697.11l0,-22.19M81.03,545.44H219.85" />
<path id="cv_68" class="ZW" d="M190.33,848.36A 41.743215 41.743215 0 0 0 219.84 860.58" />
</g>
<g style="font-family: arial, helvetica, sans-serif" stroke="none" fill="#7F0000">
<g font-size="119.970000" stroke="none" fill="#7F0000">
<text id="cv_69" transform="scale(1.111111 1) translate(369.68 1066.4) rotate(330) " >For Demonstration Purposes Only</text>
<text id="cv_70" transform="scale(1.111111 1) translate(739.36 1066.4) rotate(330) " >Tailor Made Software, Ltd</text>
</g>
</g>
<g class="SINK" id="cv_Block_SINK_1">
<g id="cvclr_71" stroke="#29A500" fill="none">
<path id="cv_72" class="ZW" d="M85.08,731.9l0,26.55M86.61,759.98h36.81M124.95,758.45l0,-26.55h-39.87M91.79,756.44h26.45M121.41,753.27l0,-11.55M88.63,741.72l0,11.55M118.24,738.55h-12.16M103.86,736.19l0,8.79h2.23l0,-8.79h-2.23M103.86,738.55h-12.06" />
<path id="cv_73" class="ZW" d="M91.79,738.55A 3.166894 3.166894 0 0 0 88.63 741.72M88.63,753.27A 3.166894 3.166894 0 0 0 91.79 756.44M118.24,756.44A 3.166894 3.166894 0 0 0 121.41 753.27M121.41,741.72A 3.166894 3.166894 0 0 0 118.24 738.55M85.08,758.45A 1.530585 1.530585 0 0 0 86.61 759.98M123.42,759.98A 1.530585 1.530585 0 0 0 124.95 758.45" />
<circle id="cv_74" class="ZW" cx="99.3" cy="735.54" r="2.055675" />
<circle id="cv_75" class="ZW" cx="110.64" cy="735.54" r="2.055675" />
</g>
</g>
<g class="SINK" id="cv_Block_SINK_2">
<g id="cvclr_76" stroke="#29A500" fill="none">
<path id="cv_77" class="ZW" d="M37.53,731.9l0,26.55M39.06,759.98h36.81M77.4,758.45l0,-26.55h-39.87M44.24,756.44h26.45M73.86,753.27l0,-11.55M41.07,741.72l0,11.55M70.69,738.55h-12.16M56.3,736.19l0,8.79h2.23l0,-8.79h-2.23M56.3,738.55h-12.06" />
<path id="cv_78" class="ZW" d="M44.24,738.55A 3.166894 3.166894 0 0 0 41.07 741.72M41.07,753.27A 3.166894 3.166894 0 0 0 44.24 756.44M70.69,756.44A 3.166894 3.166894 0 0 0 73.86 753.27M73.86,741.72A 3.166894 3.166894 0 0 0 70.69 738.55M37.53,758.45A 1.530585 1.530585 0 0 0 39.06 759.98M75.87,759.98A 1.530585 1.530585 0 0 0 77.4 758.45" />
<circle id="cv_79" class="ZW" cx="51.75" cy="735.54" r="2.055675" />
<circle id="cv_80" class="ZW" cx="63.09" cy="735.54" r="2.055675" />
</g>
</g>
<g class="SINK" id="cv_Block_SINK_3">
<g id="cvclr_81" stroke="#29A500" fill="none">
<path id="cv_82" class="ZW" d="M37.53,723.55l0,-26.55M39.06,695.46h36.81M77.4,697l0,26.55h-39.87M44.24,699.01h26.45M73.86,702.17l0,11.55M41.07,713.73l0,-11.55M70.69,716.89h-12.16M56.3,719.26l0,-8.79h2.23l0,8.79h-2.23M56.3,716.89h-12.06" />
<path id="cv_83" class="ZW" d="M41.07,713.73A 3.166894 3.166894 0 0 0 44.24 716.89M44.24,699.01A 3.166894 3.166894 0 0 0 41.07 702.17M73.86,702.17A 3.166894 3.166894 0 0 0 70.69 699.01M70.69,716.89A 3.166894 3.166894 0 0 0 73.86 713.73M39.06,695.46A 1.530585 1.530585 0 0 0 37.53 696.99M77.4,697A 1.530585 1.530585 0 0 0 75.87 695.46" />
<circle id="cv_84" class="ZW" cx="51.75" cy="719.9" r="2.055675" />
<circle id="cv_85" class="ZW" cx="63.09" cy="719.9" r="2.055675" />
</g>
</g>
<g class="SINK" id="cv_Block_SINK_4">
<g id="cvclr_86" stroke="#29A500" fill="none">
<path id="cv_87" class="ZW" d="M137.83,548.23l0,26.55M136.3,576.31h-36.81M97.96,574.78l0,-26.55h39.87M131.12,572.77h-26.45M101.5,569.6l0,-11.55M134.28,558.05l0,11.55M104.67,554.88h12.16M119.05,552.52l0,8.79h-2.23l0,-8.79h2.23M119.05,554.88h12.06" />
<path id="cv_88" class="ZW" d="M134.28,558.05A 3.166894 3.166894 0 0 0 131.12 554.88M131.12,572.77A 3.166894 3.166894 0 0 0 134.28 569.6M101.5,569.6A 3.166894 3.166894 0 0 0 104.67 572.77M104.67,554.88A 3.166894 3.166894 0 0 0 101.5 558.05M136.29,576.31A 1.530585 1.530585 0 0 0 137.83 574.78M97.96,574.78A 1.530585 1.530585 0 0 0 99.49 576.31" />
<circle id="cv_89" class="ZW" cx="123.61" cy="551.87" r="2.055675" />
<circle id="cv_90" class="ZW" cx="112.27" cy="551.87" r="2.055675" />
</g>
</g>
<g class="WC_2D_DOOR" id="cv_Block_WC_2D_DOOR_5">
<g id="cvclr_91" stroke="#29A500" fill="none">
<path id="cv_92" class="ZW" d="M215.67,649.8l-23.61,23.61" />
<path id="cv_93" class="ZW" d="M182.28,649.8A 33.394572 33.394572 0 0 0 192.06 673.41" />
</g>
</g>
<g class="TOILET" id="cv_Block_TOILET_6">
<g id="cvclr_94" stroke="#29A500" fill="none">
<path id="cv_95" class="ZW" d="M208.72,731.9h-19.48M208.72,731.9l-3.48,6.26M189.24,731.9l3.48,6.26" />
<path id="cv_96" class="ZW" d="M205.24,738.16A 7.162878 7.162878 0 0 0 205.24 745.12M205.24,764.6A 15.375418 15.375418 0 0 0 205.24 745.12M192.71,764.6A 7.374635 7.374635 0 0 0 205.24 764.6M192.71,745.12A 15.375418 15.375418 0 0 0 192.71 764.6M192.71,745.12A 7.162878 7.162878 0 0 0 192.71 738.16" />
<circle id="cv_97" class="ZW" cx="198.98" cy="734.68" r="1.391441" />
</g>
</g>
<g class="TOILET" id="cv_Block_TOILET_7">
<g id="cvclr_98" stroke="#29A500" fill="none">
<path id="cv_99" class="ZW" d="M208.72,723.55h-19.48M208.72,723.55l-3.48,-6.26M189.24,723.55l3.48,-6.26" />
<path id="cv_100" class="ZW" d="M205.24,710.33A 7.162878 7.162878 0 0 0 205.24 717.29M205.24,710.33A 15.375418 15.375418 0 0 0 205.24 690.85M205.24,690.85A 7.374635 7.374635 0 0 0 192.71 690.85M192.71,690.85A 15.375418 15.375418 0 0 0 192.71 710.33M192.71,717.29A 7.162878 7.162878 0 0 0 192.71 710.33" />
<circle id="cv_101" class="ZW" cx="198.98" cy="720.77" r="1.391441" />
</g>
</g>
<g class="WC_2D_DOOR" id="cv_Block_WC_2D_DOOR_8">
<g id="cvclr_102" stroke="#29A500" fill="none">
<path id="cv_103" class="ZW" d="M215.67,805.64l-23.61,-23.61" />
<path id="cv_104" class="ZW" d="M192.06,782.03A 33.394572 33.394572 0 0 0 182.28 805.64" />
</g>
</g>
<g class="URINAL" id="cv_Block_URINAL_9">
<g id="cvclr_105" stroke="#29A500" fill="none">
<path id="cv_106" class="ZW" d="M186.76,548.23h25.05M186.76,557.97l0,-9.74M189.54,556.58l0,1.39M197.19,564.23l-5.57,-7.65M206.93,556.58l-5.57,7.65M209.02,557.97l0,-1.39M211.8,548.23l0,9.74M207.63,555.88h-16.7" />
<path id="cv_107" class="ZW" d="M186.76,557.97A 1.391441 1.391441 0 1 0 189.54 557.97M191.63,556.58A 1.100030 1.100030 0 0 0 189.54 556.58M197.19,564.23A 3.478601 3.478601 0 0 0 201.37 564.23M209.02,556.58A 1.100030 1.100030 0 0 0 206.93 556.58M209.02,557.97A 1.391441 1.391441 0 1 0 211.8 557.97" />
<circle id="cv_108" class="ZW" cx="199.28" cy="551.01" r="1.391441" />
</g>
</g>
<g class="WC_2D_DOOR" id="cv_Block_WC_2D_DOOR_10">
<g id="cvclr_109" stroke="#29A500" fill="none">
<path id="cv_110" class="ZW" d="M219.85,641.45l-23.61,-23.61" />
<path id="cv_111" class="ZW" d="M219.85,608.06A 33.394572 33.394572 0 0 0 196.24 617.84" />
</g>
</g>
<g class="WC_2D_DOOR" id="cv_Block_WC_2D_DOOR_11">
<g id="cvclr_112" stroke="#29A500" fill="none">
<path id="cv_113" class="ZW" d="M171.15,649.8l-23.61,23.61" />
<path id="cv_114" class="ZW" d="M137.75,649.8A 33.394572 33.394572 0 0 0 147.53 673.41" />
</g>
</g>
<g class="WC_2D_DOOR" id="cv_Block_WC_2D_DOOR_12">
<g id="cvclr_115" stroke="#29A500" fill="none">
<path id="cv_116" class="ZW" d="M126.62,649.8l-23.61,23.61" />
<path id="cv_117" class="ZW" d="M93.23,649.8A 33.394572 33.394572 0 0 0 103.01 673.41" />
</g>
</g>
<g class="TOILET" id="cv_Block_TOILET_13">
<g id="cvclr_118" stroke="#29A500" fill="none">
<path id="cv_119" class="ZW" d="M164.19,731.9h-19.48M164.19,731.9l-3.48,6.26M144.71,731.9l3.48,6.26" />
<path id="cv_120" class="ZW" d="M160.71,738.16A 7.162878 7.162878 0 0 0 160.71 745.12M160.71,764.6A 15.375418 15.375418 0 0 0 160.71 745.12M148.19,764.6A 7.374635 7.374635 0 0 0 160.71 764.6M148.19,745.12A 15.375418 15.375418 0 0 0 148.19 764.6M148.19,745.12A 7.162878 7.162878 0 0 0 148.19 738.16" />
<circle id="cv_121" class="ZW" cx="154.45" cy="734.68" r="1.391441" />
</g>
</g>
<g class="WC_2D_DOOR" id="cv_Block_WC_2D_DOOR_14">
<g id="cvclr_122" stroke="#29A500" fill="none">
<path id="cv_123" class="ZW" d="M171.15,805.64l-23.61,-23.61" />
<path id="cv_124" class="ZW" d="M147.53,782.03A 33.394572 33.394572 0 0 0 137.75 805.64" />
</g>
</g>
<g class="TOILET" id="cv_Block_TOILET_15">
<g id="cvclr_125" stroke="#29A500" fill="none">
<path id="cv_126" class="ZW" d="M119.66,723.55h-19.48M119.66,723.55l-3.48,-6.26M100.18,723.55l3.48,-6.26" />
<path id="cv_127" class="ZW" d="M116.19,710.33A 7.162878 7.162878 0 0 0 116.19 717.29M116.18,710.33A 15.375418 15.375418 0 0 0 116.19 690.85M116.19,690.85A 7.374635 7.374635 0 0 0 103.66 690.85M103.66,690.85A 15.375418 15.375418 0 0 0 103.66 710.33M103.66,717.29A 7.162878 7.162878 0 0 0 103.66 710.33" />
<circle id="cv_128" class="ZW" cx="109.92" cy="720.77" r="1.391441" />
</g>
</g>
<g class="TOILET" id="cv_Block_TOILET_16">
<g id="cvclr_129" stroke="#29A500" fill="none">
<path id="cv_130" class="ZW" d="M164.19,723.55h-19.48M164.19,723.55l-3.48,-6.26M144.71,723.55l3.48,-6.26" />
<path id="cv_131" class="ZW" d="M160.71,710.33A 7.162878 7.162878 0 0 0 160.71 717.29M160.71,710.33A 15.375418 15.375418 0 0 0 160.71 690.85M160.71,690.85A 7.374635 7.374635 0 0 0 148.19 690.85M148.19,690.85A 15.375418 15.375418 0 0 0 148.19 710.33M148.19,717.29A 7.162878 7.162878 0 0 0 148.19 710.33" />
<circle id="cv_132" class="ZW" cx="154.45" cy="720.77" r="1.391441" />
</g>
</g>
<g class="URINAL" id="cv_Block_URINAL_17">
<g id="cvclr_133" stroke="#29A500" fill="none">
<path id="cv_134" class="ZW" d="M154.55,548.23h25.05M154.55,557.97l0,-9.74M157.34,556.58l0,1.39M164.99,564.23l-5.57,-7.65M174.73,556.58l-5.57,7.65M176.82,557.97l0,-1.39M179.6,548.23l0,9.74M175.42,555.88h-16.7" />
<path id="cv_135" class="ZW" d="M154.55,557.97A 1.391441 1.391441 0 1 0 157.34 557.97M159.42,556.58A 1.100030 1.100030 0 0 0 157.34 556.58M164.99,564.23A 3.478601 3.478601 0 0 0 169.16 564.23M176.82,556.58A 1.100030 1.100030 0 0 0 174.73 556.58M176.82,557.97A 1.391441 1.391441 0 1 0 179.6 557.97" />
<circle id="cv_136" class="ZW" cx="167.08" cy="551.01" r="1.391441" />
</g>
</g>
<g class="WC_2D_DOOR" id="cv_Block_WC_2D_DOOR_18">
<g id="cvclr_137" stroke="#29A500" fill="none">
<path id="cv_138" class="ZW" d="M228.2,647.02l23.61,-23.61" />
<path id="cv_139" class="ZW" d="M261.59,647.02A 33.394572 33.394572 0 0 0 251.81 623.41" />
</g>
</g>
</g>
<g id="layer_DR" class="layer_DR"  cvjs:layerName="DR" cvjs:plottable="YES"
 cvjs:status="ON" visibility="visible">
<g id="cvclr_140" stroke="#FF7F00" fill="none">
<path id="cv_141" class="ZW" d="M237.64,848.36l29.52,-29.52M178.17,418.19l35.42,35.42M237.64,586.09l29.52,-29.52M306.87,505.73l35.42,-35.42M231.74,489.15l35.42,35.42M1118.78,711.78l35.42,35.42M1100,604.52l35.42,-35.42M1246,521.11l-35.42,-35.42" />
<path id="cv_142" class="ZW" d="M237.64,848.36A 41.743215 41.743215 0 0 0 267.15 860.58M178.17,418.19A 50.091858 50.091858 0 0 0 163.49 453.61M237.64,586.09A 41.743215 41.743215 0 0 0 267.15 598.32M306.87,505.72A 50.091858 50.091858 0 0 0 342.29 520.4M267.16,474.48A 50.091858 50.091858 0 0 0 231.74 489.15M1154.2,697.11A 50.091858 50.091858 0 0 0 1118.78 711.78M1085.32,569.1A 50.091858 50.091858 0 0 0 1099.99 604.52M1210.57,535.78A 50.091858 50.091858 0 0 0 1245.99 521.11" />
</g>
<g style="font-family: arial, helvetica, sans-serif" stroke="none" fill="#7F0000">
<g font-size="119.970000" stroke="none" fill="#7F0000">
<text id="cv_143" transform="scale(1.111111 1) translate(369.68 1066.4) rotate(330) " >For Demonstration Purposes Only</text>
<text id="cv_144" transform="scale(1.111111 1) translate(739.36 1066.4) rotate(330) " >Tailor Made Software, Ltd</text>
</g>
</g>
<g class="90S2" id="cv_Block_90S2_19">
<g id="cvclr_145" stroke="#FF7F00" fill="none">
<path id="cv_146" class=" ZW" d="M283.85,879.39l0.04,1.89l0.11,1.88l0.18,1.88l0.25,1.87l0.32,1.86l0.39,1.85l0.46,1.83l0.53,1.81l0.59,1.79l0.66,1.77l0.73,1.74l0.79,1.71l0.86,1.68l0.92,1.65l0.98,1.61l1.22,1.83l1.3,1.78l1.37,1.72l1.45,1.66l1.74,1.81l1.6,1.51l1.66,1.44l1.72,1.37l1.78,1.29l1.84,1.21l1.62,0.97l1.65,0.91l1.69,0.85l1.72,0.78l1.74,0.72l1.77,0.65l1.79,0.59l1.81,0.52l1.83,0.45l1.85,0.38l1.86,0.31l1.87,0.24l1.88,0.17l1.88,0.1l1.89,0.03l0.94,-0.01h0.31" />
<path id="cv_147" class="ZW" d="M333.95,879.39l0,50.09M332.38,879.39l0,49.99M333.95,879.39h-1.57" />
</g>
</g>
<g class="DR_2D_S90" id="cv_Block_DR_2D_S90_20">
<g id="cvclr_148" stroke="#FF7F00" fill="none">
<path id="cv_149" class=" ZW" d="M324.97,453.61l-0.04,-1.77l-0.12,-1.77l-0.19,-1.76l-0.27,-1.75l-0.35,-1.74l-0.42,-1.72l-0.5,-1.7l-0.57,-1.68l-0.65,-1.65l-0.72,-1.62l-0.91,-1.81l-1,-1.77l-1.08,-1.71l-1.17,-1.66l-1.41,-1.79l-1.51,-1.71l-1.61,-1.62l-1.69,-1.53l-1.78,-1.43l-1.65,-1.19l-1.7,-1.1l-1.76,-1.02l-1.8,-0.93l-1.62,-0.74l-1.65,-0.66l-1.67,-0.59l-1.7,-0.52l-1.72,-0.44l-1.74,-0.37l-1.75,-0.29l-1.76,-0.21l-1.77,-0.14l-0.25,-0.01" />
<path id="cv_150" class="ZW" d="M286.45,413.12l0,40.29h-1.97l0,-40.29h1.97" />
</g>
</g>
<g class="90S2" id="cv_Block_90S2_21">
<g id="cvclr_151" stroke="#FF7F00" fill="none">
<path id="cv_152" class=" ZW" d="M1084.63,769.47l0.04,1.89l0.11,1.88l0.18,1.88l0.25,1.87l0.32,1.86l0.39,1.85l0.46,1.83l0.53,1.81l0.59,1.79l0.66,1.77l0.73,1.74l0.79,1.71l0.86,1.68l0.92,1.65l0.98,1.61l1.22,1.83l1.3,1.78l1.37,1.72l1.45,1.66l1.74,1.81l1.6,1.51l1.66,1.44l1.72,1.37l1.78,1.29l1.84,1.21l1.62,0.97l1.65,0.91l1.69,0.85l1.72,0.78l1.74,0.72l1.77,0.65l1.79,0.59l1.81,0.52l1.83,0.45l1.85,0.38l1.86,0.31l1.87,0.24l1.88,0.17l1.88,0.1l1.89,0.03l0.94,-0.01h0.31" />
<path id="cv_153" class="ZW" d="M1134.72,769.47l0,50.09M1133.16,769.47l0,49.99M1134.72,769.47h-1.57" />
</g>
</g>
<g class="DR_2D_DOUB" id="cv_Block_DR_2D_DOUB_22">
<g id="cvclr_154" stroke="#FF7F00" fill="none">
<path id="cv_155" class=" ZW" d="M1201.51,576.64l-0.04,1.84l-0.12,1.83l-0.2,1.82l-0.28,1.81l-0.36,1.8l-0.44,1.78l-0.52,1.76l-0.59,1.74l-0.67,1.71l-0.74,1.68l-0.82,1.64l-0.89,1.61l-1.1,1.79l-1.19,1.73l-1.28,1.67l-1.36,1.6l-1.62,1.72l-1.72,1.62l-1.6,1.36l-1.67,1.28l-1.73,1.19l-1.79,1.1l-1.61,0.89l-1.64,0.82l-1.68,0.74l-1.71,0.67l-1.74,0.59l-1.76,0.52l-1.78,0.44l-1.8,0.36l-1.81,0.28l-1.82,0.2l-1.83,0.12l-1.57,0.04h-0.26M1159.77,618.38l1.84,0.04l1.83,0.12l1.82,0.2l1.81,0.28l1.8,0.36l1.78,0.44l1.76,0.52l1.74,0.59l1.71,0.67l1.68,0.74l1.64,0.82l1.61,0.89l1.79,1.1l1.73,1.19l1.67,1.28l1.6,1.36l1.72,1.62l1.62,1.72l1.36,1.6l1.28,1.67l1.19,1.73l1.1,1.79l0.89,1.61l0.82,1.64l0.74,1.68l0.67,1.71l0.59,1.74l0.52,1.76l0.44,1.78l0.36,1.8l0.28,1.81l0.2,1.82l0.12,1.83l0.04,1.57v0.26" />
<path id="cv_156" class="ZW" d="M1159.77,576.64h41.74l0,1.3h-41.74l0,-1.3M1159.77,658.82l0,1.3M1201.51,658.82h-41.74M1201.51,660.13l0,-1.3M1159.77,660.13h41.74" />
</g>
</g>
</g>
<g id="layer_PL" class="layer_PL"  cvjs:layerName="PL" cvjs:plottable="YES"
 cvjs:status="ON" visibility="visible">
<g id="cvclr_157" stroke="#29A500" fill="none">
<path id="cv_158" class="ZW" d="M75.14,436.91L75.14,242.11M4.17,584.06l0,-71.66M45.92,374.3l0,-77.92M120.01,201.76h79.31" />
</g>
<g style="font-family: arial, helvetica, sans-serif" stroke="none" fill="#7F0000">
<g font-size="119.970000" stroke="none" fill="#7F0000">
<text id="cv_159" transform="scale(1.111111 1) translate(369.68 1066.4) rotate(330) " >For Demonstration Purposes Only</text>
<text id="cv_160" transform="scale(1.111111 1) translate(739.36 1066.4) rotate(330) " >Tailor Made Software, Ltd</text>
</g>
</g>
</g>
<g id="layer_PL_2D_STAIR" class="layer_PL_2D_STAIR"  cvjs:layerName="PL-STAIR" cvjs:plottable="YES"
 cvjs:status="ON" visibility="visible">
<g id="cvclr_161" stroke="none" fill="#29A500" opacity="1.">
<path id="cv_162" d="M107.95,317.25l2.32,-13.91l2.32,13.91h-4.64 Z "/>
<path id="cv_163" d="M184.48,317.25l2.32,-13.91l2.32,13.91h-4.64 Z "/>
<path id="cv_164" d="M1201.05,794.51l-2.32,13.91l-2.32,-13.91h4.64 Z "/>
<path id="cv_165" d="M1255.08,715.66l13.91,2.32l-13.91,2.32v-4.64 Z "/>
</g>
<g id="cvclr_166" stroke="#29A500" fill="none">
<path id="cv_167" class=" ZW" d="M139.14,385.43v-5.57h5.57v5.57h-5.57M152.36,385.43v-5.57h5.57v5.57h-5.57" />
<path id="cv_168" class=" nZW sLW_0_6" d="M139.14,306.12v-5.57h5.57v5.57h-5.57" />
<path id="cv_169" class=" ZW" d="M152.36,306.12v-5.57h5.57v5.57h-5.57M1226.55,811.21v-5.57h5.57v5.57h-5.57M1266.21,811.21v-5.57h5.57v5.57h-5.57" />
<path id="cv_170" class=" nZW sLW_0_6" d="M1226.55,758.34v-5.57h5.57v5.57h-5.57" />
<path id="cv_171" class=" ZW" d="M1266.21,758.34v-5.57h5.57v5.57h-5.57" />
<path id="cv_172" class="ZW" d="M141.93,300.55l0,-82.09M155.15,300.55l0,-82.09M221.93,356.21h-66.79M215.67,356.21h-60.53M215.67,369.43h-60.53M215.67,382.65h-57.74M215.67,303.33h-57.74M215.67,316.55h-60.53M215.67,329.77h-60.53M215.67,342.99h-60.53M110.27,317.25L110.27,419.52M141.93,453.61l0,-68.18M155.15,453.61l0,-68.18M110.27,419.52h44.87" />
<path id="cv_173" class="nZW sLW_0_6" d="M141.93,356.21h-66.79" />
<path id="cv_174" class="ZW" d="M141.93,356.21h-60.53M141.93,369.43h-60.53M139.14,382.65h-57.74M141.93,316.55h-60.53M141.93,329.77h-60.53M141.93,342.99h-60.53M139.14,303.33h-57.74M79.31,385.43l0,-84.88M81.4,385.43l0,-84.88M81.4,385.43h-2.09M79.31,382.65h-4.17M79.31,356.21h-4.17M79.31,369.43h-4.17M79.31,342.99h-4.17M79.31,303.33h-4.17M79.31,316.55h-4.17M79.31,329.77h-4.17M81.4,300.55h-2.09M155.15,379.86l0,-73.75M141.93,379.86l0,-73.75M144.01,379.86l0,-73.75M153.06,379.86l0,-73.75M186.8,317.25l0,65.4M152.36,382.65h-7.65M152.36,380.56h-7.65M152.36,303.33h-7.65M152.36,305.42h-7.65M217.76,385.43l0,-84.88M215.67,385.43l0,-84.88M221.93,382.65h-4.17M217.76,385.43h-2.09M221.93,356.21h-4.17M221.93,369.43h-4.17M221.93,342.99h-4.17M221.93,303.33h-4.17M221.93,316.55h-4.17M221.93,329.77h-4.17M217.76,300.55h-2.09M1168.11,811.21l0,-58.44M1170.9,811.21l0,-58.44M1327.43,811.21l0,-58.44M1330.22,811.21l0,-58.44M1271.78,866.87h-45.22M1271.78,869.65h-45.22M1266.21,808.43h-34.09M1229.34,869.65l0,5.57M1242.56,869.65l0,5.57M1226.55,808.43h-55.66M1170.9,811.21h-2.78M1168.11,808.43h-5.57M1229.34,811.21l0,55.66M1229.34,861.3l0,-50.09M1242.56,808.43l0,58.44M1226.55,866.87l0,2.78M1268.99,869.65l0,5.57M1255.78,869.65l0,5.57M1327.43,808.43h-55.66h55.66M1268.99,811.21l0,55.66M1268.99,861.3l0,-50.09M1255.78,808.43l0,58.44M1271.78,866.87l0,2.78M1335.78,808.43h-5.57h5.57M1327.43,811.21h2.78M1266.21,755.55h-34.09M1266.21,758.34h-34.09M1266.21,805.64h-34.09M1271.78,680.41h-45.22M1271.78,683.2h-45.22M1255.08,717.98h-25.74M1242.56,755.55l0,-72.35M1229.34,752.77l0,-69.57M1229.34,768.77h-58.44M1229.34,781.99h-58.44M1229.34,795.21h-58.44M1226.55,755.55h-55.66M1168.11,781.99h-5.57M1168.11,795.21h-5.57M1170.9,752.77h-2.78M1168.11,768.77h-5.57M1229.34,805.64l0,-47.31M1198.73,794.51l0,-38.96M1232.12,805.64l0,-47.31M1229.34,797.3l0,8.35l0,-8.35M1226.55,683.2l0,-2.78M1229.34,680.41l0,-5.57M1242.56,680.41l0,-5.57M1255.78,755.55l0,-72.35M1268.99,752.77l0,-69.57M1327.43,755.55h-55.66M1268.99,795.21h58.44M1268.99,781.99h58.44M1268.99,768.77h58.44M1271.78,755.55h55.66M1268.99,805.64l0,-47.31M1266.21,805.64l0,-47.31M1268.99,797.3l0,8.35l0,-8.35M1330.22,795.21h5.57M1330.22,781.99h5.57M1335.78,755.55h-5.57M1330.22,768.77h5.57M1330.22,755.55h5.57M1327.43,752.77h2.78M1271.78,683.2l0,-2.78M1255.78,680.41l0,-5.57M1268.99,680.41l0,-5.57M221.93,453.61L221.93,218.46" />
<circle id="cv_175" class="nZW sLW_0_6" cx="155.15" cy="419.52" r="1.082188" />
<circle id="cv_176" class="nZW sLW_0_6" cx="186.8" cy="382.65" r="1.082188" />
<circle id="cv_177" class="nZW sLW_0_6" cx="1198.73" cy="755.55" r="1.082188" />
<circle id="cv_178" class="nZW sLW_0_6" cx="1229.34" cy="717.98" r="1.082188" />
</g>
<g style="font-family: simplex, , arial, helvetica, sans-serif" stroke="none" fill="#29A500">
<g font-size="14.490859" stroke="none" fill="#29A500">
<text id="cv_179" transform="scale(0.833333 1) translate(149.59 411.17) " >UP</text>
<text id="cv_180" transform="scale(0.833333 1) translate(214.77 412.32) " >DN</text>
<text id="cv_181" transform="scale(0.833333 1) translate(1427.83 747.2) " >DN</text>
<text id="cv_182" transform="scale(0.833333 1) translate(1449.83 730.51) " >UP</text>
</g>
<g font-size="0.289817" stroke="none" fill="#29A500">
<text id="cv_183" transform="scale(0.833333 1) translate(1474.67 718.23) " >UP</text>
</g>
</g>
<g style="font-family: arial, helvetica, sans-serif" stroke="none" fill="#7F0000">
<g font-size="119.970000" stroke="none" fill="#7F0000">
<text id="cv_184" transform="scale(1.111111 1) translate(369.68 1066.4) rotate(330) " >For Demonstration Purposes Only</text>
<text id="cv_185" transform="scale(1.111111 1) translate(739.36 1066.4) rotate(330) " >Tailor Made Software, Ltd</text>
</g>
</g>
</g>
<g id="layer_WN" class="layer_WN"  cvjs:layerName="WN" cvjs:plottable="YES"
 cvjs:status="ON" visibility="visible">
<g id="cvclr_186" stroke="#808080" fill="none">
<path id="cv_187" class="ZW" d="M20.87,586.84l0,-77.22M13.91,584.06l0,-71.66M62.61,293.59l0,83.49M55.66,296.38l0,77.92M117.23,218.46h84.88M120.01,211.5h79.31" />
</g>
<g style="font-family: arial, helvetica, sans-serif" stroke="none" fill="#7F0000">
<g font-size="119.970000" stroke="none" fill="#7F0000">
<text id="cv_188" transform="scale(1.111111 1) translate(369.68 1066.4) rotate(330) " >For Demonstration Purposes Only</text>
<text id="cv_189" transform="scale(1.111111 1) translate(739.36 1066.4) rotate(330) " >Tailor Made Software, Ltd</text>
</g>
</g>
<g class="WNV" id="cv_Block_WNV_23">
<g id="cvclr_190" stroke="#29A500" fill="none">
<path id="cv_191" class="ZW" d="M17.39,746.16l0,77.22M13.91,820.6l0,-71.66M20.87,746.16l0,77.22" />
</g>
<g id="cvclr_192" stroke="#808080" fill="none">
<path id="cv_193" class="ZW" d="M4.17,820.6l0,-71.66" />
</g>
</g>
<g class="WNH" id="cv_Block_WNH_24">
<g id="cvclr_194" stroke="#808080" fill="none">
<path id="cv_195" class="ZW" d="M199.32,1131.24h-77.92" />
</g>
<g id="cvclr_196" stroke="#29A500" fill="none">
<path id="cv_197" class="ZW" d="M202.11,1118.02h-83.49M199.32,1121.5h-77.92M202.11,1114.54h-83.49" />
</g>
</g>
<g class="WNH" id="cv_Block_WNH_25">
<g id="cvclr_198" stroke="#808080" fill="none">
<path id="cv_199" class="ZW" d="M45.92,1036.62l0,-77.92" />
</g>
<g id="cvclr_200" stroke="#29A500" fill="none">
<path id="cv_201" class="ZW" d="M59.14,1039.41l0,-83.49M55.66,1036.62l0,-77.92M62.61,1039.41l0,-83.49" />
</g>
</g>
<g class="WNH" id="cv_Block_WNH_26">
<g id="cvclr_202" stroke="#808080" fill="none">
<path id="cv_203" class="ZW" d="M323.86,1131.24h-77.92" />
</g>
<g id="cvclr_204" stroke="#29A500" fill="none">
<path id="cv_205" class="ZW" d="M326.64,1118.02h-83.49M323.86,1121.5h-77.92M326.64,1114.54h-83.49" />
</g>
</g>
<g class="WNH" id="cv_Block_WNH_27">
<g id="cvclr_206" stroke="#808080" fill="none">
<path id="cv_207" class="ZW" d="M516.57,1230.03h-77.92" />
</g>
<g id="cvclr_208" stroke="#29A500" fill="none">
<path id="cv_209" class="ZW" d="M519.36,1216.81h-83.49M516.57,1220.29h-77.92M519.36,1213.34h-83.49" />
</g>
</g>
<g class="WNH" id="cv_Block_WNH_28">
<g id="cvclr_210" stroke="#808080" fill="none">
<path id="cv_211" class="ZW" d="M641.11,1230.03h-77.92" />
</g>
<g id="cvclr_212" stroke="#29A500" fill="none">
<path id="cv_213" class="ZW" d="M643.89,1216.81h-83.49M641.11,1220.29h-77.92M643.89,1213.34h-83.49" />
</g>
</g>
<g class="WNV" id="cv_Block_WNV_29">
<g id="cvclr_214" stroke="#29A500" fill="none">
<path id="cv_215" class="ZW" d="M17.39,705.11l0,-77.22M13.91,630.67l0,71.66M20.87,705.11l0,-77.22" />
</g>
<g id="cvclr_216" stroke="#808080" fill="none">
<path id="cv_217" class="ZW" d="M4.17,630.67l0,71.66" />
</g>
</g>
<g class="WNV" id="cv_Block_WNV_30">
<g id="cvclr_218" stroke="#29A500" fill="none">
<path id="cv_219" class="ZW" d="M17.39,627.89l0,77.22M13.91,702.33l0,-71.66M20.87,627.89l0,77.22" />
</g>
<g id="cvclr_220" stroke="#808080" fill="none">
<path id="cv_221" class="ZW" d="M4.17,702.33l0,-71.66" />
</g>
</g>
<g class="WNH" id="cv_Block_WNH_31">
<g id="cvclr_222" stroke="#808080" fill="none">
<path id="cv_223" class="ZW" d="M323.86,201.76h-77.92" />
</g>
<g id="cvclr_224" stroke="#29A500" fill="none">
<path id="cv_225" class="ZW" d="M326.64,214.98h-83.49M323.86,211.5h-77.92M326.64,218.46h-83.49" />
</g>
</g>
<g class="WNH" id="cv_Block_WNH_32">
<g id="cvclr_226" stroke="#808080" fill="none">
<path id="cv_227" class="ZW" d="M516.57,102.97h-77.92" />
</g>
<g id="cvclr_228" stroke="#29A500" fill="none">
<path id="cv_229" class="ZW" d="M519.36,116.19h-83.49M516.57,112.71h-77.92M519.36,119.66h-83.49" />
</g>
</g>
<g class="WNH" id="cv_Block_WNH_33">
<g id="cvclr_230" stroke="#808080" fill="none">
<path id="cv_231" class="ZW" d="M641.11,102.97h-77.92" />
</g>
<g id="cvclr_232" stroke="#29A500" fill="none">
<path id="cv_233" class="ZW" d="M643.89,116.19h-83.49M641.11,112.71h-77.92M643.89,119.66h-83.49" />
</g>
</g>
<g class="WNV" id="cv_Block_WNV_34">
<g id="cvclr_234" stroke="#29A500" fill="none">
<path id="cv_235" class="ZW" d="M2036.37,735.03l0,77.22M2039.85,809.47l0,-71.66M2032.89,735.03l0,77.22" />
</g>
<g id="cvclr_236" stroke="#808080" fill="none">
<path id="cv_237" class="ZW" d="M2049.59,809.47l0,-71.66" />
</g>
</g>
<g class="WNH" id="cv_Block_WNH_35">
<g id="cvclr_238" stroke="#808080" fill="none">
<path id="cv_239" class="ZW" d="M1539.98,1216.12h77.92" />
</g>
<g id="cvclr_240" stroke="#29A500" fill="none">
<path id="cv_241" class="ZW" d="M1537.19,1202.9h83.49M1539.98,1206.38h77.92M1537.19,1199.42h83.49" />
</g>
</g>
<g class="WNH" id="cv_Block_WNH_36">
<g id="cvclr_242" stroke="#808080" fill="none">
<path id="cv_243" class="ZW" d="M1066.19,1328.83h77.92" />
</g>
<g id="cvclr_244" stroke="#29A500" fill="none">
<path id="cv_245" class="ZW" d="M1063.41,1315.61h83.49M1066.19,1319.09h77.92M1063.41,1312.13h83.49" />
</g>
</g>
<g class="WNH" id="cv_Block_WNH_37">
<g id="cvclr_246" stroke="#808080" fill="none">
<path id="cv_247" class="ZW" d="M838,1324.65h-77.92" />
</g>
<g id="cvclr_248" stroke="#29A500" fill="none">
<path id="cv_249" class="ZW" d="M840.78,1311.43h-83.49M838,1314.91h-77.92M840.78,1307.95h-83.49" />
</g>
</g>
<g class="WNH" id="cv_Block_WNH_38">
<g id="cvclr_250" stroke="#808080" fill="none">
<path id="cv_251" class="ZW" d="M987.57,1328.83h-77.92" />
</g>
<g id="cvclr_252" stroke="#29A500" fill="none">
<path id="cv_253" class="ZW" d="M990.36,1315.61h-83.49M987.57,1319.09h-77.92M990.36,1312.13h-83.49" />
</g>
</g>
<g class="WNH" id="cv_Block_WNH_39">
<g id="cvclr_254" stroke="#808080" fill="none">
<path id="cv_255" class="ZW" d="M1215.77,1324.65h77.92" />
</g>
<g id="cvclr_256" stroke="#29A500" fill="none">
<path id="cv_257" class="ZW" d="M1212.99,1311.43h83.49M1215.77,1314.91h77.92M1212.99,1307.95h83.49" />
</g>
</g>
<g class="WNH" id="cv_Block_WNH_40">
<g id="cvclr_258" stroke="#808080" fill="none">
<path id="cv_259" class="ZW" d="M1415.44,1216.12h77.92" />
</g>
<g id="cvclr_260" stroke="#29A500" fill="none">
<path id="cv_261" class="ZW" d="M1412.66,1202.9h83.49M1415.44,1206.38h77.92M1412.66,1199.42h83.49" />
</g>
</g>
<g class="WNH" id="cv_Block_WNH_41">
<g id="cvclr_262" stroke="#808080" fill="none">
<path id="cv_263" class="ZW" d="M1732.69,1103.41h77.92" />
</g>
<g id="cvclr_264" stroke="#29A500" fill="none">
<path id="cv_265" class="ZW" d="M1729.91,1090.19h83.49M1732.69,1093.67h77.92M1729.91,1086.72h83.49" />
</g>
</g>
<g class="WNH" id="cv_Block_WNH_42">
<g id="cvclr_266" stroke="#808080" fill="none">
<path id="cv_267" class="ZW" d="M1857.23,1103.41h77.92" />
</g>
<g id="cvclr_268" stroke="#29A500" fill="none">
<path id="cv_269" class="ZW" d="M1854.44,1090.19h83.49M1857.23,1093.67h77.92M1854.44,1086.72h83.49" />
</g>
</g>
<g class="WNH" id="cv_Block_WNH_43">
<g id="cvclr_270" stroke="#808080" fill="none">
<path id="cv_271" class="ZW" d="M2007.85,942.01l0,77.92" />
</g>
<g id="cvclr_272" stroke="#29A500" fill="none">
<path id="cv_273" class="ZW" d="M1994.63,939.22l0,83.49M1998.11,942.01l0,77.92M1991.15,939.22l0,83.49" />
</g>
</g>
<g class="WNH" id="cv_Block_WNH_44">
<g id="cvclr_274" stroke="#808080" fill="none">
<path id="cv_275" class="ZW" d="M1539.98,116.88h77.92" />
</g>
<g id="cvclr_276" stroke="#29A500" fill="none">
<path id="cv_277" class="ZW" d="M1537.19,130.1h83.49M1539.98,126.62h77.92M1537.19,133.58h83.49" />
</g>
</g>
<g class="WNH" id="cv_Block_WNH_45">
<g id="cvclr_278" stroke="#808080" fill="none">
<path id="cv_279" class="ZW" d="M1066.19,4.17h77.92" />
</g>
<g id="cvclr_280" stroke="#29A500" fill="none">
<path id="cv_281" class="ZW" d="M1063.41,17.39h83.49M1066.19,13.91h77.92M1063.41,20.87h83.49" />
</g>
</g>
<g class="WNH" id="cv_Block_WNH_46">
<g id="cvclr_282" stroke="#808080" fill="none">
<path id="cv_283" class="ZW" d="M838,8.35h-77.92" />
</g>
<g id="cvclr_284" stroke="#29A500" fill="none">
<path id="cv_285" class="ZW" d="M840.78,21.57h-83.49M838,18.09h-77.92M840.78,25.05h-83.49" />
</g>
</g>
<g class="WNH" id="cv_Block_WNH_47">
<g id="cvclr_286" stroke="#808080" fill="none">
<path id="cv_287" class="ZW" d="M987.57,4.17h-77.92" />
</g>
<g id="cvclr_288" stroke="#29A500" fill="none">
<path id="cv_289" class="ZW" d="M990.36,17.39h-83.49M987.57,13.91h-77.92M990.36,20.87h-83.49" />
</g>
</g>
<g class="WNH" id="cv_Block_WNH_48">
<g id="cvclr_290" stroke="#808080" fill="none">
<path id="cv_291" class="ZW" d="M1215.77,8.35h77.92" />
</g>
<g id="cvclr_292" stroke="#29A500" fill="none">
<path id="cv_293" class="ZW" d="M1212.99,21.57h83.49M1215.77,18.09h77.92M1212.99,25.05h83.49" />
</g>
</g>
<g class="WNH" id="cv_Block_WNH_49">
<g id="cvclr_294" stroke="#808080" fill="none">
<path id="cv_295" class="ZW" d="M1415.44,116.88h77.92" />
</g>
<g id="cvclr_296" stroke="#29A500" fill="none">
<path id="cv_297" class="ZW" d="M1412.66,130.1h83.49M1415.44,126.62h77.92M1412.66,133.58h83.49" />
</g>
</g>
<g class="WNV" id="cv_Block_WNV_50">
<g id="cvclr_298" stroke="#29A500" fill="none">
<path id="cv_299" class="ZW" d="M2036.37,597.97l0,-77.22M2039.85,523.53l0,71.66M2032.89,597.97l0,-77.22" />
</g>
<g id="cvclr_300" stroke="#808080" fill="none">
<path id="cv_301" class="ZW" d="M2049.59,523.53l0,71.66" />
</g>
</g>
<g class="WNV" id="cv_Block_WNV_51">
<g id="cvclr_302" stroke="#29A500" fill="none">
<path id="cv_303" class="ZW" d="M2036.37,705.11l0,-77.22M2039.85,630.67l0,71.66M2032.89,705.11l0,-77.22" />
</g>
<g id="cvclr_304" stroke="#808080" fill="none">
<path id="cv_305" class="ZW" d="M2049.59,630.67l0,71.66" />
</g>
</g>
<g class="WNV" id="cv_Block_WNV_52">
<g id="cvclr_306" stroke="#29A500" fill="none">
<path id="cv_307" class="ZW" d="M2036.37,627.89l0,77.22M2039.85,702.33l0,-71.66M2032.89,627.89l0,77.22" />
</g>
<g id="cvclr_308" stroke="#808080" fill="none">
<path id="cv_309" class="ZW" d="M2049.59,702.33l0,-71.66" />
</g>
</g>
<g class="WNH" id="cv_Block_WNH_53">
<g id="cvclr_310" stroke="#808080" fill="none">
<path id="cv_311" class="ZW" d="M2007.85,390.99l0,-77.92" />
</g>
<g id="cvclr_312" stroke="#29A500" fill="none">
<path id="cv_313" class="ZW" d="M1994.63,393.78l0,-83.49M1998.11,390.99l0,-77.92M1991.15,393.78l0,-83.49" />
</g>
</g>
<g class="WNH" id="cv_Block_WNH_54">
<g id="cvclr_314" stroke="#808080" fill="none">
<path id="cv_315" class="ZW" d="M1732.69,229.59h77.92" />
</g>
<g id="cvclr_316" stroke="#29A500" fill="none">
<path id="cv_317" class="ZW" d="M1729.91,242.81h83.49M1732.69,239.33h77.92M1729.91,246.28h83.49" />
</g>
</g>
<g class="WNH" id="cv_Block_WNH_55">
<g id="cvclr_318" stroke="#808080" fill="none">
<path id="cv_319" class="ZW" d="M1857.23,229.59h77.92" />
</g>
<g id="cvclr_320" stroke="#29A500" fill="none">
<path id="cv_321" class="ZW" d="M1854.44,242.81h83.49M1857.23,239.33h77.92M1854.44,246.28h83.49" />
</g>
</g>
</g>
<g id="layer_PL_2D_ELVTR_block" class="layer_PL_2D_ELVTR_block"  cvjs:layerName="PL-ELVTR" cvjs:plottable="YES"
 cvjs:status="ON" visibility="visible">
<g class="ELEV" id="cv_Block_ELEV_56">
<g id="cvclr_322" stroke="#29A500" fill="none">
<path id="cv_323" class=" ZW" d="M567.36,872.43v-91.84H684.24v91.84H567.36" />
<path id="cv_324" class="ZW" d="M684.24,780.6L567.36,872.43M567.36,780.6L684.24,872.43" />
</g>
</g>
<g class="ELEV" id="cv_Block_ELEV_57">
<g id="cvclr_325" stroke="#29A500" fill="none">
<path id="cv_326" class=" ZW" d="M567.36,460.61v91.84H684.24v-91.84H567.36" />
<path id="cv_327" class="ZW" d="M684.24,552.45L567.36,460.61M567.36,552.45L684.24,460.61" />
</g>
</g>
<g class="ELEV" id="cv_Block_ELEV_58">
<g id="cvclr_328" stroke="#29A500" fill="none">
<path id="cv_329" class=" ZW" d="M417.78,872.43v-91.84H534.66v91.84H417.78" />
<path id="cv_330" class="ZW" d="M534.66,780.6L417.78,872.43M417.78,780.6L534.66,872.43" />
</g>
</g>
<g class="ELEV" id="cv_Block_ELEV_59">
<g id="cvclr_331" stroke="#29A500" fill="none">
<path id="cv_332" class=" ZW" d="M417.78,460.61v91.84H534.66v-91.84H417.78" />
<path id="cv_333" class="ZW" d="M534.66,552.45L417.78,460.61M417.78,552.45L534.66,460.61" />
</g>
</g>
<g class="ELEV" id="cv_Block_ELEV_60">
<g id="cvclr_334" stroke="#29A500" fill="none">
<path id="cv_335" class=" ZW" d="M735.03,872.43v-91.84H851.91v91.84H735.03" />
<path id="cv_336" class="ZW" d="M851.91,780.6L735.03,872.43M735.03,780.6L851.91,872.43" />
</g>
</g>
<g class="ELEV" id="cv_Block_ELEV_61">
<g id="cvclr_337" stroke="#29A500" fill="none">
<path id="cv_338" class=" ZW" d="M884.61,872.43v-91.84H1001.49v91.84H884.61" />
<path id="cv_339" class="ZW" d="M1001.49,780.6L884.61,872.43M884.61,780.6L1001.49,872.43" />
</g>
</g>
<g class="ELEV" id="cv_Block_ELEV_62">
<g id="cvclr_340" stroke="#29A500" fill="none">
<path id="cv_341" class=" ZW" d="M735.03,460.61v91.84H851.91v-91.84H735.03" />
<path id="cv_342" class="ZW" d="M851.91,552.45L735.03,460.61M735.03,552.45L851.91,460.61" />
</g>
</g>
<g class="ELEV" id="cv_Block_ELEV_63">
<g id="cvclr_343" stroke="#29A500" fill="none">
<path id="cv_344" class=" ZW" d="M884.61,460.61v91.84H1001.49v-91.84H884.61" />
<path id="cv_345" class="ZW" d="M1001.49,552.45L884.61,460.61M884.61,552.45L1001.49,460.61" />
</g>
</g>
</g>
</g></svg>